<svg width="28" height="28" viewBox="0 0 28 28" fill="none" xmlns="http://www.w3.org/2000/svg">
<g clip-path="url(#clip0_29_528)">
<mask id="mask0_29_528" style="mask-type:alpha" maskUnits="userSpaceOnUse" x="0" y="0" width="28" height="28">
<path d="M21.0476 27.987C21.6663 27.9741 22.2893 27.9351 22.8992 27.8271C23.5179 27.7146 24.0976 27.5417 24.6601 27.252C25.2182 26.9753 25.7243 26.6078 26.1613 26.1754C26.5982 25.7431 26.9703 25.2415 27.2473 24.6924C27.5327 24.1346 27.7145 23.5683 27.827 22.9543C27.9394 22.349 27.9741 21.735 27.987 21.1211C27.9957 20.84 27.9957 20.559 28 20.2779V7.71773C28 7.43669 28 7.15566 27.987 6.87462C27.9741 6.26498 27.9351 5.6467 27.827 5.04139C27.7145 4.42743 27.5327 3.8567 27.2473 3.30328C26.966 2.75849 26.5982 2.25695 26.1613 1.82026C25.7243 1.38789 25.2139 1.02038 24.6601 0.74367C24.0933 0.462631 23.5179 0.281037 22.8992 0.168623C22.2893 0.0605312 21.6663 0.0216183 21.0476 0.00864731C20.9308 0.00864731 20.8139 0.00432365 20.6236 0H8.15513L6.96107 0.012971C6.3424 0.025942 5.71941 0.0648549 5.10939 0.172947C4.49073 0.285361 3.911 0.462631 3.34858 0.747993C2.79048 1.02471 2.2843 1.39222 1.84735 1.82458C1.41038 2.25695 1.03832 2.75849 0.761434 3.30759C0.47157 3.86535 0.29419 4.43175 0.181706 5.0457C0.0648949 5.65102 0.0302843 6.26498 0.0129789 6.87893C0.00432633 7.15997 0.00432633 7.44101 0 7.72205V20.2823C0 20.5633 0.00432633 20.8444 0.0129789 21.1254C0.025958 21.735 0.0648949 22.3533 0.173053 22.9586C0.285538 23.5726 0.467243 24.1433 0.752781 24.6967C1.03399 25.2415 1.40173 25.7431 1.83869 26.1798C2.27565 26.6121 2.78615 26.9796 3.33992 27.2564C3.90668 27.5374 4.48208 27.7189 5.10074 27.8314C5.71075 27.9394 6.33374 27.9784 6.95241 27.9914C7.06922 27.9914 7.18604 27.9957 7.37639 28H19.1829L21.039 27.9914L21.0476 27.987Z" fill="#299400"/>
</mask>
<g mask="url(#mask0_29_528)">
<path d="M0 0H28V28H0V0Z" fill="#19AA1E"/>
<path fill-rule="evenodd" clip-rule="evenodd" d="M0 0H28V9.1875L0 4.8125V0Z" fill="#FFB919"/>
<path fill-rule="evenodd" clip-rule="evenodd" d="M0 24.9375L28 20.5625V28H0V24.9375Z" fill="#82D714"/>
<path fill-rule="evenodd" clip-rule="evenodd" d="M0 4.25903L9.77362 5.78614C10.9903 5.01602 12.4377 4.59378 14 4.59378C16.1638 4.59378 18.1074 5.4038 19.5225 6.82624C19.7012 7.00573 19.8696 7.1934 20.0275 7.38833L28 8.63401V9.74102L20.837 8.62183C21.3691 9.64305 21.6562 10.7809 21.6562 11.942C21.6562 13.4421 21.3207 14.9378 20.6271 16.4395L20.606 16.485L20.3114 17.1162H19.6148C18.1764 17.1162 17.2223 17.5465 16.5985 18.309C16.1087 18.9077 15.8255 19.7148 15.7302 20.5954L15.7273 20.623L15.7134 20.7637L15.7074 20.8249L15.6961 20.9446C15.6596 21.3378 15.6352 21.6712 15.6228 21.9429L28 20.0091V21.116L0 25.491V24.3841L12.391 22.4479L12.3857 22.1994L12.384 22.1293L12.383 22.0933L12.381 22.0379C12.3699 21.7366 12.3423 21.3503 12.2981 20.8821L12.2895 20.7933L12.2744 20.6395C12.1855 19.7543 11.9064 18.9369 11.4179 18.3293C10.8007 17.5616 9.85535 17.1251 8.42854 17.1163L8.38515 17.1162H7.68859L7.39402 16.485C6.68611 14.968 6.34375 13.4573 6.34375 11.942C6.34375 10.0365 7.11682 8.19387 8.47747 6.82624C8.51675 6.78676 8.55643 6.74774 8.59651 6.70921L0 5.36603V4.25903Z" fill="white"/>
<path fill-rule="evenodd" clip-rule="evenodd" d="M14 5.6875C17.909 5.6875 20.5625 8.6963 20.5625 11.942C20.5625 13.245 20.2782 14.6009 19.6148 16.0224C15.7683 16.0224 14.8189 18.7771 14.6393 20.5103L14.6279 20.6258C14.567 21.2444 14.5319 21.7407 14.5222 22.1149L13.4804 22.2777L13.4801 22.244C13.4762 21.8518 13.4391 21.3016 13.3689 20.5934L13.3659 20.5625C13.2 18.833 12.2705 16.0224 8.38515 16.0224C7.72179 14.6009 7.4375 13.245 7.4375 11.942C7.4375 8.6963 10.0909 5.6875 14 5.6875Z" fill="#0073FA"/>
</g>
</g>
<defs>
<clipPath id="clip0_29_528">
<rect width="28" height="28" rx="10" fill="white"/>
</clipPath>
</defs>
</svg>
