<svg width="116" height="20" viewBox="0 0 116 20" fill="none" xmlns="http://www.w3.org/2000/svg">
<g clip-path="url(#clip0_115_71)">
<path d="M9.09981 2.38977C9.50165 1.69991 10.4983 1.69991 10.9001 2.38977L13.2292 6.38871L17.7522 7.36814C18.5325 7.5371 18.8405 8.48494 18.3086 9.08027L15.2251 12.5312L15.6912 17.1354C15.7716 17.9297 14.9654 18.5155 14.2348 18.1936L9.99998 16.3274L5.76511 18.1936C5.03455 18.5155 4.22827 17.9297 4.3087 17.1354L4.77487 12.5312L1.69141 9.08027C1.15948 8.48494 1.46745 7.5371 2.24771 7.36814L6.77068 6.38871L9.09981 2.38977Z" fill="#F5B300"/>
</g>
<g clip-path="url(#clip1_115_71)">
<path d="M33.0998 2.38977C33.5016 1.69991 34.4983 1.69991 34.9001 2.38977L37.2292 6.38871L41.7522 7.36814C42.5325 7.5371 42.8405 8.48494 42.3086 9.08027L39.2251 12.5312L39.6912 17.1354C39.7716 17.9297 38.9654 18.5155 38.2348 18.1936L34 16.3274L29.7651 18.1936C29.0346 18.5155 28.2283 17.9297 28.3087 17.1354L28.7749 12.5312L25.6914 9.08027C25.1595 8.48494 25.4675 7.5371 26.2477 7.36814L30.7707 6.38871L33.0998 2.38977Z" fill="#F5B300"/>
</g>
<g clip-path="url(#clip2_115_71)">
<path d="M57.0998 2.38977C57.5016 1.69991 58.4983 1.69991 58.9001 2.38977L61.2292 6.38871L65.7522 7.36814C66.5325 7.5371 66.8405 8.48494 66.3086 9.08027L63.2251 12.5312L63.6912 17.1354C63.7716 17.9297 62.9654 18.5155 62.2348 18.1936L58 16.3274L53.7651 18.1936C53.0346 18.5155 52.2283 17.9297 52.3087 17.1354L52.7749 12.5312L49.6914 9.08027C49.1595 8.48494 49.4675 7.5371 50.2477 7.36814L54.7707 6.38871L57.0998 2.38977Z" fill="#F5B300"/>
</g>
<g clip-path="url(#clip3_115_71)">
<path d="M81.0998 2.38977C81.5016 1.69991 82.4983 1.69991 82.9001 2.38977L85.2292 6.38871L89.7522 7.36814C90.5325 7.5371 90.8405 8.48494 90.3086 9.08027L87.2251 12.5312L87.6912 17.1354C87.7716 17.9297 86.9654 18.5155 86.2348 18.1936L82 16.3274L77.7651 18.1936C77.0346 18.5155 76.2283 17.9297 76.3087 17.1354L76.7749 12.5312L73.6914 9.08027C73.1595 8.48494 73.4675 7.5371 74.2477 7.36814L78.7707 6.38871L81.0998 2.38977Z" fill="#F5B300"/>
</g>
<g clip-path="url(#clip4_115_71)">
<path d="M105.1 2.38977C105.502 1.69991 106.498 1.69991 106.9 2.38977L109.229 6.38871L113.752 7.36814C114.532 7.5371 114.84 8.48494 114.309 9.08027L111.225 12.5312L111.691 17.1354C111.772 17.9297 110.965 18.5155 110.235 18.1936L106 16.3274L101.765 18.1936C101.035 18.5155 100.228 17.9297 100.309 17.1354L100.775 12.5312L97.6914 9.08027C97.1595 8.48494 97.4675 7.5371 98.2477 7.36814L102.771 6.38871L105.1 2.38977Z" fill="#F5B300"/>
</g>
<defs>
<clipPath id="clip0_115_71">
<rect width="20" height="20" fill="white"/>
</clipPath>
<clipPath id="clip1_115_71">
<rect width="20" height="20" fill="white" transform="translate(24)"/>
</clipPath>
<clipPath id="clip2_115_71">
<rect width="20" height="20" fill="white" transform="translate(48)"/>
</clipPath>
<clipPath id="clip3_115_71">
<rect width="20" height="20" fill="white" transform="translate(72)"/>
</clipPath>
<clipPath id="clip4_115_71">
<rect width="20" height="20" fill="white" transform="translate(96)"/>
</clipPath>
</defs>
</svg>
