<svg width="24" height="24" viewBox="0 0 24 24" fill="none" xmlns="http://www.w3.org/2000/svg">
<g clip-path="url(#clip0_29_253)">
<path d="M21.2754 18.5508L20.2361 19.5902L21.1863 20.5405H3.45962V19.0705H5.66451V14.6523C5.47754 14.6574 5.29017 14.6608 5.10236 14.6608H3.45957V13.1908H5.10232C12.0666 13.1908 18.444 9.38167 21.7458 3.24976L20.4516 2.55292C17.4066 8.20793 11.5251 11.7209 5.10232 11.7209H3.45957V2.81378L4.40983 3.76399L5.44917 2.72461L2.72461 0L0 2.72461L1.03939 3.76399L1.98969 2.81374V22.0104H21.1863L20.2361 22.9606L21.2754 24L24 21.2754L21.2754 18.5508Z" fill="white"/>
<path d="M9.33929 19.0705V14.2168C8.61113 14.3712 7.87507 14.4856 7.1344 14.5594V19.0705L9.33929 19.0705ZM13.0141 19.0705V13.0652C12.2948 13.3681 11.5586 13.6294 10.8092 13.8477V19.0705H13.0141ZM18.1589 19.0705V9.93103C17.0263 10.8769 15.7941 11.6967 14.484 12.376V19.0705H18.1589Z" fill="white"/>
</g>
<defs>
<clipPath id="clip0_29_253">
<rect width="24" height="24" fill="white"/>
</clipPath>
</defs>
</svg>
