<svg width="24" height="24" viewBox="0 0 24 24" fill="none" xmlns="http://www.w3.org/2000/svg">
<g clip-path="url(#clip0_29_237)">
<path d="M22.4681 5.3617C22.4681 8.7405 19.7192 11.4893 16.3404 11.4894L12.5107 11.4893V8.8065L13.6616 9.95742L15.8281 9.95747L12.5837 6.7132C12.6731 6.13911 12.8445 5.58082 13.0924 5.05538L17.7674 9.73036C18.2782 9.56295 18.7557 9.30709 19.1779 8.97445L13.9373 3.73378C14.2664 3.34034 14.6432 2.9894 15.0591 2.68903L20.2095 7.83947C20.5114 7.36997 20.7248 6.84912 20.8391 6.30272L16.4663 1.92994C17.1418 1.67306 17.8738 1.53192 18.6383 1.53192V0C14.4148 0 10.9787 3.43608 10.9787 7.65956V11.234H7.50638C3.36736 11.2341 0 14.6014 0 18.7404H1.53192C1.53192 15.4461 4.21205 12.766 7.50638 12.766H11.234V15.4736L10.0583 14.2979H7.89188L11.1411 17.547C11.04 18.1119 10.8575 18.6591 10.5992 19.1716L5.99161 14.564C5.49159 14.7462 5.02838 15.0168 4.62403 15.3628L9.72234 20.4611C9.38065 20.8451 8.99122 21.1837 8.56355 21.4688L3.64336 16.5486C3.35802 17.049 3.17347 17.6005 3.10013 18.1718L7.10447 22.1762C6.50869 22.37 5.88606 22.4685 5.25956 22.4681V24C9.39858 24 12.7659 20.6326 12.7659 16.4936V13.0213L16.3404 13.0213C20.5639 13.0213 24 9.58519 24 5.3617H22.4681Z" fill="white"/>
</g>
<defs>
<clipPath id="clip0_29_237">
<rect width="24" height="24" fill="white"/>
</clipPath>
</defs>
</svg>
