<svg width="24" height="24" viewBox="0 0 24 24" fill="none" xmlns="http://www.w3.org/2000/svg">
<g clip-path="url(#clip0_29_205)">
<path d="M21.1769 9.1765C20.4228 9.1765 19.7137 9.47019 19.1804 10.0035C18.8178 10.3661 18.5663 10.81 18.4422 11.2941H16.1264C16.0202 10.6644 15.7722 10.0671 15.4012 9.54732L19.6936 5.25499C21.5311 6.37037 23.9715 4.98591 23.9502 2.82359C23.9502 1.26676 22.6835 0.000136282 21.1267 0.000136282C18.9644 -0.0209929 17.5798 2.41917 18.6953 4.25674L14.403 8.54907C12.9466 7.51097 10.9764 7.49501 9.49762 8.54907L7.32292 6.37437C8.4383 4.53684 7.05384 2.09644 4.89151 2.11781C3.33469 2.11781 2.06807 3.38443 2.06807 4.9413C2.04694 7.10358 4.4871 8.48822 6.32467 7.37261L8.49938 9.54732C7.45238 11.0161 7.45318 12.9871 8.50126 14.4553L4.25463 18.7434C2.417 17.6308 -0.0205682 19.0155 0.00074921 21.1764C0.00074921 22.7332 1.26737 23.9999 2.82424 23.9999C4.98789 24.021 6.3723 21.578 5.25405 19.7406L9.50026 15.4528C10.0099 15.8155 10.603 16.068 11.2947 16.1761V17.8384C9.16163 18.2933 8.40343 21.0582 9.95381 22.5675C11.0545 23.6682 12.8458 23.6685 13.9468 22.5675C15.0478 21.4666 15.0478 19.6753 13.9468 18.5745C13.5771 18.2047 13.1293 17.9598 12.7065 17.8384V16.176C14.427 15.8776 15.828 14.4767 16.1264 12.7058H18.4423C18.5664 13.1899 18.8178 13.6339 19.1805 13.9964C20.2838 15.0999 22.0699 15.1001 23.1735 13.9964C24.9447 12.2384 23.6764 9.16831 21.1769 9.1765Z" fill="white"/>
</g>
<defs>
<clipPath id="clip0_29_205">
<rect width="24" height="24" fill="white"/>
</clipPath>
</defs>
</svg>
