<svg width="28" height="28" viewBox="0 0 28 28" fill="none" xmlns="http://www.w3.org/2000/svg">
<g clip-path="url(#clip0_29_297)">
<path d="M0 0H28V28H0V0Z" fill="#D80027"/>
<path d="M9.16667 9.15637L10.2353 12.4454H13.6937L10.8958 14.4782L11.9645 17.7673L9.16667 15.7346L6.36875 17.7673L7.43745 14.4782L4.63953 12.4454H8.09791L9.16667 9.15637ZM15.9024 20.0958L14.8531 19.3334L13.804 20.0957L14.2047 18.8624L13.1555 18.1H14.4525L14.8531 16.8666L15.254 18.1H16.5508L15.5017 18.8623L15.9024 20.0958ZM18.6395 16.3284H17.3427L16.9419 17.5618L16.5412 16.3285L15.2442 16.3284L16.2935 15.5661L15.8927 14.3328L16.942 15.0949L17.9911 14.3327L17.5903 15.5661L18.6395 16.3284ZM18.6395 11.6718L17.5903 12.4341L17.9911 13.6674L16.942 12.9053L15.8927 13.6675L16.2935 12.434L15.2443 11.6718L16.5412 11.6717L16.942 10.4382L17.3427 11.6717L18.6395 11.6718ZM15.9024 7.90435L15.5017 9.13783L16.5508 9.90006L15.2541 9.90012L14.8532 11.1336L14.4525 9.90006L13.1556 9.90017L14.2048 9.13777L13.804 7.9043L14.8531 8.6667L15.9024 7.90435Z" fill="#FFDA44"/>
</g>
<defs>
<clipPath id="clip0_29_297">
<rect width="28" height="28" rx="14" fill="white"/>
</clipPath>
</defs>
</svg>
