<svg width="57" height="59" viewBox="0 0 57 59" fill="none" xmlns="http://www.w3.org/2000/svg">
<path d="M42.7095 21.7411C52.7712 17.082 56.849 14.4472 55.5036 13.4877C54.7998 12.9996 54.4406 12.9698 52.8954 13.2547C49.8984 13.8494 38.0773 19.4682 37.8194 20.4308C37.4616 21.766 40.6926 22.665 42.7095 21.7411Z" fill="#323231"/>
<path d="M21.0578 16.2058C22.2688 15.798 22.2397 15.6572 19.4094 10.2728C17.9154 7.37623 16.5623 5.44949 15.435 4.54838C13.8988 3.30473 12.7749 4.13519 13.2272 5.18823C17.0693 14.2717 18.9663 16.91 21.0578 16.2058Z" fill="#323231"/>
<path d="M46.0666 33.7563C44.3164 32.6883 35.4224 27.0104 34.7809 26.5389C34.4716 26.3229 34.3888 25.6351 34.5471 24.546C35.6326 16.3836 36.1842 7.84496 35.7091 6.75252C35.3626 5.92751 33.4979 5.6608 32.7915 6.30355C32.0851 6.9463 27.6752 14.1848 24.7738 19.5311L22.8724 23.0153C3.68294 23.864 2.75059 23.481 10.0982 28.079L16.5864 32.1471C20.2716 34.4658 20.3565 34.5215 20.3083 35.5736C20.237 37.0854 20.3978 44.5836 20.2862 48.1148C20.0234 55.6989 24.5691 52.1911 31.0891 39.694L32.5898 36.8346C32.9802 36.8726 35.4053 37.2895 46.2124 37.8223C48.6899 37.9204 48.6536 35.3148 46.0666 33.7563Z" fill="#323231"/>
<path d="M32.327 33.7024C33.6664 34.0613 40.9286 34.2433 41.236 34.0927C41.5829 33.9194 35.7697 30.1982 33.1246 28.8571C31.0068 27.7904 31.0795 28.1431 31.6165 20.5326C32.124 13.7795 32.1237 13.7794 31.2467 15.3082L26.2878 24.0968C25.7891 24.9616 24.9063 25.3907 24.0653 25.1653C23.1932 24.9317 14.8964 25.371 13.1831 25.4111C11.8064 25.4416 12.261 25.8629 15.4396 27.5799C21.7659 31.0057 23.3438 32.0941 23.2977 33.0136C23.2578 34.0346 23.873 38.5921 23.7739 42.3263C23.7103 45.3045 23.8283 45.2366 26.3327 40.7492C30.1256 33.9445 30.7074 33.2684 32.327 33.7024Z" fill="white"/>
<path d="M33.354 40.8333C33.171 41.5164 39.1724 52.0105 40.2001 52.785C42.3633 54.4296 43.3358 53.2921 41.9621 50.6942C38.2831 43.6181 33.9364 38.6597 33.354 40.8333Z" fill="#323231"/>
<path d="M8.83829 36.3944C1.77637 38.8286 0.841492 39.5766 3.83164 40.3778C5.29557 40.77 16.2602 36.8522 16.2045 35.9387C16.1179 34.5177 13.8479 34.6416 8.83829 36.3944Z" fill="#323231"/>
</svg>
