<svg width="53" height="77" viewBox="0 0 53 77" fill="none" xmlns="http://www.w3.org/2000/svg">
<path d="M28.1738 27.6831C24.7096 24.8037 21.7792 20.9106 19.6231 16.3518C17.9637 12.8374 15.4028 6.29698 15.2797 5.23433C15.0879 3.57857 12.045 3.25491 12.4172 6.46758C12.609 8.12335 12.6354 17.8626 9.99097 24.0044C7.48802 29.8542 6.44031 31.4034 4.34965 32.5973C3.14942 33.2622 3.39288 33.6345 5.24378 34.0462C9.82019 35.0688 12.2238 38.5219 17.8288 52.0979C21.0966 59.9841 22.5013 59.5709 22.6959 50.6575C22.8715 41.7964 26.1223 31.3769 29.1348 29.9259C30.1327 29.4597 30.0328 29.2459 28.1738 27.6831Z" fill="#323231"/>
<path d="M19.4092 46.9309L19.6211 44.6524C20.6698 32.7349 25.9782 29.9162 26.2129 29.5635L23.9953 27.7164C20.6167 24.9271 18.025 21.7963 16.2754 18.3675C15.4382 16.7615 15.3755 16.8689 15.1686 19.6228C14.7626 25.6304 11.8864 32.1496 9.58815 32.4159C8.87147 32.4989 9.13111 32.7944 10.4584 33.4421C15.3187 35.8342 19.1514 46.4349 19.4092 46.9309Z" fill="white"/>
<path d="M49.3644 54.7306C45.118 52.0169 41.6262 46.7365 41.0908 42.1152C40.856 40.0888 37.8931 38.0776 37.547 43.9531C37.1388 51.2382 36.5494 53.285 34.0804 56.4011C32.0455 58.941 32.0036 58.7956 34.9866 59.2514C37.7662 59.6807 40.1803 63.0077 42.2316 69.2566C43.5081 73.1409 46.4689 72.973 46.1229 68.9057C45.6346 63.177 46.575 59.8373 49.323 57.6156C51.0609 56.187 51.0674 55.8106 49.3644 54.7306Z" fill="#323231"/>
<path d="M43.1694 60.0566C43.61 59.1039 45.7202 56.781 46.5508 56.3843C46.7399 56.2872 46.5601 56.0323 46.0533 55.7654C44.2182 54.6256 42.7206 53.3718 41.7562 52.1812C40.496 50.5992 40.6413 50.557 39.7783 52.8359C39.3986 53.8817 38.5923 55.3528 37.9776 56.1002C36.7075 57.6749 36.6885 57.7269 37.601 57.8216C38.7883 57.9094 40.6947 59.0159 41.5735 60.1163C42.5988 61.4 42.5741 61.4028 43.1694 60.0566Z" fill="white"/>
</svg>
