<svg width="148" height="21" viewBox="0 0 148 21" fill="none" xmlns="http://www.w3.org/2000/svg">
<path fill-rule="evenodd" clip-rule="evenodd" d="M39.447 12.3668C33.0886 14.2646 25.7474 16.1532 18.6852 16.6248C12.649 17.0273 6.81856 16.4021 2.04627 13.7422C1.37354 13.3677 0.531113 13.6251 0.167299 14.3182C-0.19707 15.0107 0.0536045 15.878 0.726328 16.2531C5.93231 19.1539 12.2802 19.9127 18.8643 19.4731C26.0536 18.9935 33.5273 17.0923 40.0133 15.1672C40.7659 16.7366 42.3243 18.1999 45.0695 19.2795C49.2861 20.938 55.0434 20.9175 61.1084 19.9829C69.9048 18.6281 79.3673 15.3973 85.4513 13.1016C85.7008 13.008 86.0724 12.859 86.5272 12.6626C86.6658 12.9777 86.8211 13.2883 86.993 13.5932C88.4849 16.2502 91.1248 18.3986 93.8146 19.1659C110.874 24.0313 130.784 18.2016 146.995 13.4573C147.727 13.242 148.154 12.4519 147.949 11.6943C147.738 10.9367 146.973 10.4965 146.235 10.7117C130.479 15.3236 111.135 21.1424 94.5521 16.4146C92.5112 15.8323 90.5258 14.1812 89.3944 12.1647C89.2669 11.9398 89.1559 11.7097 89.0506 11.4762C91.2856 10.3361 93.9144 8.74664 95.3286 7.04529C96.7816 5.30113 97.1421 3.43936 95.8776 1.68093C94.7906 0.177698 93.1435 0.0498093 91.4298 0.829115C89.583 1.6638 87.6807 3.61518 87.0651 4.53093C85.9116 6.24141 85.5455 8.09692 85.7563 9.90617C85.2128 10.1425 84.7713 10.3184 84.499 10.4211C78.5482 12.666 69.2992 15.8346 60.698 17.1597C55.1637 18.0127 49.9067 18.1263 46.0589 16.6133C44.4179 15.9676 43.3336 15.214 42.7452 14.3394C43.9065 13.982 45.0263 13.6303 46.0961 13.2946C48.2119 12.6306 52.617 11.5316 55.7643 9.57276C58.2672 8.01529 59.9643 5.8966 59.8656 3.24068C59.8151 1.87618 59.0481 0.965548 57.8274 0.455146C56.0033 -0.307033 52.8488 0.0617741 51.6742 0.318688C48.1115 1.09628 43.3564 4.31514 41.0038 7.9422C40.0649 9.38948 39.5064 10.9036 39.447 12.3668ZM42.3736 11.475C43.3802 11.1633 44.353 10.8573 45.2875 10.5639C47.2624 9.94383 51.3908 8.95899 54.3296 7.12976C55.8858 6.16148 57.1564 5.00139 57.0948 3.34971C57.0898 3.22126 56.9661 3.18473 56.8569 3.13221C56.6877 3.05171 56.4942 2.99631 56.2879 2.95292C54.8919 2.65947 53.0169 2.9432 52.2493 3.11105C49.26 3.76361 45.2836 6.48406 43.3098 9.52763C42.8927 10.1705 42.5605 10.8253 42.3736 11.475ZM88.496 8.59191C89.7993 7.90166 91.1636 7.06697 92.2395 6.15863C92.8107 5.6762 93.2932 5.18009 93.5983 4.66512C93.8534 4.23922 93.9532 3.80301 93.6481 3.38167C93.5261 3.21096 93.3431 3.20756 93.1546 3.23953C92.9549 3.27379 92.7497 3.34684 92.5445 3.44105C91.1913 4.05421 89.7937 5.48666 89.3445 6.15863C88.8177 6.93794 88.557 7.76236 88.496 8.59191Z" fill="#F6C461"/>
</svg>
