<svg width="24" height="24" viewBox="0 0 24 24" fill="none" xmlns="http://www.w3.org/2000/svg">
<path fill-rule="evenodd" clip-rule="evenodd" d="M6.84375 11.3125V1H17.1562V11.3125H6.84375ZM13.2339 8.3358L13.6146 9.34457H14.9924L12.586 2.96793L11.4358 2.96904L9.00761 9.34457H10.387L10.7712 8.3358H13.2339ZM1.04297 12.6875V23H11.3555V12.6875H1.04297ZM6.45931 21.0387C6.08325 21.0387 4.04743 21.0478 4.04743 21.0478V14.5761H6.19655C7.20916 14.5761 8.03295 15.3999 8.03295 16.4125C8.03319 16.7675 7.92996 17.1148 7.73591 17.412C8.20023 17.786 8.49809 18.3588 8.49809 19C8.49805 20.1241 7.58346 21.0387 6.45931 21.0387ZM11.2623 7.04669H12.7476L12.0083 5.08787L11.2623 7.04669ZM12.6446 12.6875V23H22.9571V12.6875H12.6446ZM20.0859 20.4085C18.1039 22.1179 14.93 20.4049 14.9865 17.8437C14.9642 15.2741 17.9308 13.6977 20.0449 15.154L19.3232 16.2222C18.0494 15.3456 16.262 16.2953 16.2755 17.8438C16.2755 18.9217 17.1526 19.7988 18.2306 19.7988C18.7076 19.7983 19.092 19.6311 19.3744 19.2954L20.3622 20.1235C20.2771 20.225 20.1848 20.3203 20.0859 20.4085ZM6.19664 16.9598C6.49841 16.9598 6.74397 16.7143 6.74397 16.4125C6.74397 16.1107 6.49845 15.8652 6.19664 15.8652H5.33657V16.9612C5.33657 16.9612 5.41183 16.9611 5.51818 16.9609L5.52549 16.9609C5.75496 16.9605 6.1209 16.9598 6.19664 16.9598ZM6.45939 18.2503C6.45939 18.2503 5.44056 18.2511 5.33657 18.2515V19.7532C5.75307 19.7515 6.25353 19.7497 6.45939 19.7497C6.87279 19.7497 7.20907 19.4134 7.20907 19C7.20907 18.5866 6.87275 18.2503 6.45939 18.2503Z" fill="white"/>
</svg>
