<svg width="24" height="24" viewBox="0 0 24 24" fill="none" xmlns="http://www.w3.org/2000/svg">
<path fill-rule="evenodd" clip-rule="evenodd" d="M15.8581 13.6988L16.4755 13.7001V22.9866H7.58765V13.6811L8.1382 13.6823C8.15698 13.696 11.9985 19.35 11.9985 19.35C11.9985 19.35 15.8458 13.7077 15.8581 13.6988ZM6.29263 12.9011H4.85818V23H6.29263V12.9011ZM19.205 12.9011H17.7705V23H19.205V12.9011ZM6.0701 1C6.88527 1 7.60224 1.43746 7.9869 2.10107C6.90945 2.92479 6.09108 4.07101 5.6781 5.39465C4.64316 5.20898 3.85506 4.3026 3.85506 3.21504C3.85506 1.99367 4.84873 1 6.0701 1ZM20.1447 3.21504C20.1447 4.3026 19.3566 5.20898 18.3216 5.39465C17.9086 4.07101 17.0903 2.92479 16.0128 2.10111C16.3975 1.43746 17.1145 1 17.9297 1C19.151 1 20.1447 1.99367 20.1447 3.21504ZM14.3936 7.55094H17.3253L17.3252 8.31716C17.3252 9.76585 16.7537 11.1206 15.7158 12.1318C14.6784 13.1426 13.3092 13.6786 11.8575 13.6407C8.99952 13.5664 6.6744 11.1498 6.6744 8.25388V7.55094H9.60611C10.5772 7.55094 11.4427 7.09294 11.9999 6.38227C12.5571 7.09298 13.4226 7.55094 14.3936 7.55094ZM10.1664 9.86808C10.1664 10.8838 10.9929 11.7103 12.0087 11.7103C13.0244 11.7103 13.8509 10.8838 13.8509 9.86808H12.5559C12.5559 10.1698 12.3104 10.4153 12.0087 10.4153C11.7069 10.4153 11.4614 10.1698 11.4614 9.86808H10.1664ZM9.60615 6.25592H6.79048C7.25759 4.05525 9.08784 2.35265 11.3524 2.07689V4.50972H11.3524V4.51054C11.3519 5.473 10.5687 6.25592 9.60615 6.25592ZM17.2093 6.25592H14.3936C13.431 6.25592 12.6479 5.473 12.6474 4.51054V2.07689C14.9119 2.35265 16.7421 4.0553 17.2093 6.25592ZM20.4997 14.2657C21.8224 15.4769 22.5958 17.2025 22.5958 19.0036V22.9865H20.4997V14.2657ZM11.8236 14.9352C11.8831 14.9367 11.9423 14.9375 12.0016 14.9375C12.5248 14.9379 13.0462 14.8766 13.555 14.755L12.001 17.0417L10.4552 14.755C10.9037 14.8629 11.3624 14.9233 11.8236 14.9352ZM1.4035 19.0036C1.4035 17.1263 2.18285 15.4174 3.5629 14.2178V22.9865H1.4035V19.0036Z" fill="white"/>
</svg>
