<svg width="24" height="24" viewBox="0 0 24 24" fill="none" xmlns="http://www.w3.org/2000/svg">
<path fill-rule="evenodd" clip-rule="evenodd" d="M17.1287 12.3369H11.1724V1H23V12.3369H20.7189L17.1287 14.513V12.3369ZM16.4416 4.32724H14.0192V5.61631H14.9448C15.0743 6.46425 15.455 7.27516 16.0387 7.93804C15.4794 8.21094 14.8045 8.37383 14.0192 8.37383V9.66289C15.3678 9.66289 16.3701 9.28236 17.0861 8.82887C17.8021 9.28236 18.8045 9.66289 20.1531 9.66289V8.37383C19.3678 8.37383 18.6928 8.21094 18.1336 7.93804C18.7173 7.27516 19.0981 6.46425 19.2274 5.61631H20.1531V4.32724H17.7307V3.09675H16.4416V4.32724ZM13.2841 13.6257H9.88337V9.48686H1V20.8237H3.5453L7.13547 22.9998V20.8237H13.2841V13.6257ZM8.70018 18.2665L8.17609 16.8778H6.11071L5.58133 18.2677L4.3767 17.8089L6.60326 11.9628L7.69858 11.9616L9.90618 17.8115L8.70018 18.2665ZM17.0862 7.17394C17.516 6.71933 17.7957 6.17569 17.9176 5.6161H16.2549C16.3768 6.17573 16.6565 6.71937 17.0862 7.17394ZM6.60182 15.5889H7.68974L7.14825 14.154L6.60182 15.5889Z" fill="white"/>
</svg>
