<svg width="24" height="24" viewBox="0 0 24 24" fill="none" xmlns="http://www.w3.org/2000/svg">
<path fill-rule="evenodd" clip-rule="evenodd" d="M2.33203 12.6016V1H21.668V12.6016H13.5471L12 14.0763L10.4529 12.6016H2.33203ZM7.48828 3.57812V10.0234H16.5117V3.57812H13.2891C12.792 3.57812 12.3429 3.77183 12 4.08103C11.6571 3.77183 11.208 3.57812 10.7109 3.57812H7.48828ZM8.77734 20.9805V23H15.2227V20.9805C15.2227 19.9142 14.3553 19.0469 13.2891 19.0469H12C13.0662 19.0469 13.9336 18.1795 13.9336 17.1133C13.9336 16.0471 13.0662 15.1797 12 15.1797C10.9338 15.1797 10.0664 16.0471 10.0664 17.1133C10.0664 18.1795 10.9338 19.0469 12 19.0469H10.7109C9.64471 19.0469 8.77734 19.9142 8.77734 20.9805ZM16.5547 20.9805V23H23V20.9805C23 19.9142 22.1326 19.0469 21.0664 19.0469H19.7773C20.8436 19.0469 21.7109 18.1795 21.7109 17.1133C21.7109 16.0471 20.8436 15.1797 19.7773 15.1797C18.7111 15.1797 17.8438 16.0471 17.8438 17.1133C17.8438 18.1795 18.7111 19.0469 19.7773 19.0469H18.4883C17.4221 19.0469 16.5547 19.9142 16.5547 20.9805ZM1 23H7.44531V20.9805C7.44531 19.9142 6.57795 19.0469 5.51172 19.0469H4.22266C5.28888 19.0469 6.15625 18.1795 6.15625 17.1133C6.15625 16.0471 5.28888 15.1797 4.22266 15.1797C3.15643 15.1797 2.28906 16.0471 2.28906 17.1133C2.28906 18.1795 3.15643 19.0469 4.22266 19.0469H2.93359C1.86737 19.0469 1 19.9142 1 20.9805V23ZM8.77734 4.86719H10.7109C11.0659 4.86719 11.3555 5.15611 11.3555 5.51172V8.73438H8.77734V4.86719ZM12.6445 8.73438V5.51172C12.6445 5.15611 12.9341 4.86719 13.2891 4.86719H15.2227V8.73438H12.6445Z" fill="white"/>
</svg>
