<svg width="24" height="24" viewBox="0 0 24 24" fill="none" xmlns="http://www.w3.org/2000/svg">
<path fill-rule="evenodd" clip-rule="evenodd" d="M17.5 12.6471C14.2889 12.6471 11.6765 15.2595 11.6765 18.4706C11.6765 20.2982 12.5229 21.9315 13.8442 23H1.97058V1H17.5V12.6471ZM14.9118 4.88235H7.14705V6.17647H14.9118V4.88235ZM14.9118 7.47059H7.14705V8.76471H14.9118V7.47059ZM14.9118 10.0588H7.14705V11.3529H14.9118V10.0588ZM11.6765 12.6471H7.14705V13.9412H11.6765V12.6471ZM4.55882 16.5294H5.85293V15.2353H4.55882V16.5294ZM4.55882 13.9412H5.85293V12.6471H4.55882V13.9412ZM4.55882 11.3529H5.85293V10.0588H4.55882V11.3529ZM4.55882 8.76471H5.85293V7.47059H4.55882V8.76471ZM4.55882 6.17647H5.85293V4.88235H4.55882V6.17647ZM7.14705 16.5294H9.73529V15.2353H7.14705V16.5294ZM12.9706 18.4707C12.9706 15.9692 14.9985 13.9413 17.5 13.9413C20.0015 13.9413 22.0294 15.9692 22.0294 18.4707C21.8083 24.4708 13.1926 24.4724 12.9706 18.4707ZM15.2631 18.7665L17.0147 20.5181L19.737 17.7959L18.8219 16.8808L17.0147 18.688L16.1781 17.8514L15.2631 18.7665Z" fill="white"/>
</svg>
