<svg width="24" height="24" viewBox="0 0 24 24" fill="none" xmlns="http://www.w3.org/2000/svg">
<path fill-rule="evenodd" clip-rule="evenodd" d="M5.03586 15.64C7.94702 14.944 10.9705 16.02 12.8554 18.3766C10.0097 18.8535 8.33369 18.1191 8.3065 18.1071L7.75089 19.2698C7.85158 19.3183 9.01563 19.855 11.0159 19.855C12.4309 19.855 14.2692 19.5753 16.4408 18.6703C17.4196 18.2624 18.6249 18.5894 19.106 19.5343L19.4038 20.13L16.5227 21.5709C14.4532 22.6053 12.6681 22.9994 11.119 23C9.31504 23 7.83019 22.4856 6.58439 22.054C6.50841 22.0277 6.43332 22.0017 6.3591 21.9761C6.24719 21.9375 6.13928 21.8996 6.03509 21.8631C5.0736 21.5261 4.4288 21.3001 3.88551 21.5709L3.30915 21.8591L1.00372 17.2488C1.07035 17.2193 1.17012 17.1647 1.30334 17.0917C1.89018 16.7705 3.126 16.0939 5.03586 15.64ZM11.3556 12.9989V2.93293C11.3556 1.86707 12.2227 1 13.2886 1H13.9329V12.6405H12.6443C12.1727 12.6405 11.7362 12.777 11.3556 12.9989ZM22.9962 1H15.2215V12.6405H22.9962V1ZM22.3517 13.9292C21.9958 13.9292 21.7074 14.2175 21.7074 14.5735C21.7074 14.9293 21.9958 15.2178 22.3517 15.2178H22.996V16.5064H12.6441C11.9324 16.5064 11.3555 15.9294 11.3555 15.2178C11.3555 14.5061 11.9324 13.9292 12.6441 13.9292H22.3517Z" fill="white"/>
</svg>
