<svg width="68" height="98" viewBox="0 0 68 98" fill="none" xmlns="http://www.w3.org/2000/svg">
<path d="M36.3278 35.2618C31.872 31.5581 28.1027 26.5505 25.3294 20.6867C23.195 16.1663 19.901 7.75353 19.7426 6.38667C19.4959 4.25693 15.582 3.84061 16.0607 7.97297C16.3075 10.1027 16.3414 22.63 12.9399 30.53C9.72047 38.0544 8.37283 40.047 5.6837 41.5827C4.13988 42.438 4.45303 42.9169 6.83379 43.4464C12.7203 44.7617 15.812 49.2034 23.0215 66.6657C27.2248 76.8094 29.0316 76.2779 29.2819 64.813C29.5077 53.4153 33.6891 40.013 37.5641 38.1467C38.8476 37.547 38.7191 37.2719 36.3278 35.2618Z" fill="#323231"/>
<path d="M25.0543 60.0196L25.3268 57.0888C26.6757 41.7597 33.5038 38.1342 33.8056 37.6804L30.9532 35.3046C26.6075 31.7169 23.2739 27.6898 21.0234 23.2795C19.9465 21.2137 19.8659 21.3519 19.5997 24.8941C19.0776 32.6215 15.378 41.0069 12.4218 41.3494C11.5 41.4562 11.8339 41.8363 13.5411 42.6693C19.7927 45.7463 24.7227 59.3816 25.0543 60.0196Z" fill="white"/>
<path d="M63.5847 70.052C58.1227 66.5614 53.6312 59.7695 52.9426 53.8252C52.6406 51.2187 48.8296 48.6318 48.3844 56.1892C47.8593 65.5599 47.1012 68.1926 43.9254 72.2007C41.3079 75.4677 41.2541 75.2806 45.091 75.8669C48.6663 76.4192 51.7715 80.6986 54.41 88.7363C56.0519 93.7326 59.8603 93.5165 59.4153 88.285C58.7871 80.9163 59.9968 76.6206 63.5314 73.7628C65.7668 71.9253 65.7751 71.4412 63.5847 70.052Z" fill="#323231"/>
<path d="M55.6163 76.9026C56.183 75.6773 58.8972 72.6894 59.9656 72.179C60.2088 72.0542 59.9776 71.7263 59.3257 71.3831C56.9653 69.917 55.0389 68.3043 53.7985 66.7729C52.1775 64.7379 52.3645 64.6837 51.2545 67.6149C50.766 68.96 49.7289 70.8523 48.9383 71.8137C47.3045 73.8391 47.2801 73.9061 48.4539 74.0278C49.981 74.1408 52.4331 75.5641 53.5635 76.9794C54.8823 78.6306 54.8505 78.6343 55.6163 76.9026Z" fill="white"/>
</svg>
