<svg width="64" height="64" viewBox="0 0 64 64" fill="none" xmlns="http://www.w3.org/2000/svg">
<path d="M26.3671 48.2269C26.1435 49.249 28.5039 49.6967 36.4199 50.1669C44.7997 50.6591 46.6661 50.4628 46.5001 49.2185C46.2507 47.5102 26.7712 46.5832 26.3671 48.2269Z" fill="#323231"/>
<path d="M25.5499 11.1702C22.4515 10.7209 21.9761 11.1942 18.9684 17.7027C15.8547 24.4218 15.5251 25.76 16.736 26.4478C18.9366 27.6859 20.3314 26.1708 24.5971 18.0521C27.7408 12.0604 27.8368 11.5019 25.5499 11.1702Z" fill="#323231"/>
<path d="M41.1346 24.3071C38.911 23.9545 38.0353 24.2794 35.026 26.5396C26.1248 33.278 19.2321 37.3851 23.5741 37.9847C25.3446 38.2415 27.1286 37.1595 37.8025 29.6237C43.6833 25.43 44.1063 24.7983 41.1346 24.3071Z" fill="#323231"/>
</svg>
