<svg width="28" height="28" viewBox="0 0 28 28" fill="none" xmlns="http://www.w3.org/2000/svg">
<g clip-path="url(#clip0_29_282)">
<path d="M0 0H28V28H0V0Z" fill="#F0F0F0"/>
<path d="M0 16.625H11.375V28H16.625V16.625H28V11.375H16.625V0H11.375V11.375H0V16.625Z" fill="#D80027"/>
<path d="M22.2534 18.2609L28 24.0074V18.2609H22.2534ZM18.2609 18.2609L28 28V25.2459L21.0149 18.2609H18.2609ZM25.4058 28L18.2609 20.8543V28H25.4058Z" fill="#0052B4"/>
<path d="M18.2609 18.2609L28 28V25.2459L21.0149 18.2609H18.2609Z" fill="#F0F0F0"/>
<path d="M18.2609 18.2609L28 28V25.2459L21.0149 18.2609H18.2609Z" fill="#D80027"/>
<path d="M4.39152 18.2609L0 22.6524V18.2609H4.39152ZM9.73897 19.4993V27.9998H1.23911L9.73897 19.4993Z" fill="#0052B4"/>
<path d="M6.98491 18.261L0 25.2459V28L9.73897 18.261H6.98491Z" fill="#D80027"/>
<path d="M5.74656 9.73913L0 3.99257V9.73913H5.74656ZM9.73913 9.73913L0 0V2.75406L6.98507 9.73913H9.73913ZM2.59416 0L9.73913 7.14563V0H2.59416Z" fill="#0052B4"/>
<path d="M9.73913 9.73913L0 0V2.75406L6.98507 9.73913H9.73913Z" fill="#F0F0F0"/>
<path d="M9.73913 9.73913L0 0V2.75406L6.98507 9.73913H9.73913Z" fill="#D80027"/>
<path d="M23.6085 9.73909L28 5.34758V9.73909H23.6085ZM18.261 8.50064V0.00012207H26.7609L18.261 8.50064Z" fill="#0052B4"/>
<path d="M21.0151 9.73897L28 2.75401V0L18.261 9.73897H21.0151Z" fill="#D80027"/>
</g>
<defs>
<clipPath id="clip0_29_282">
<rect width="28" height="28" rx="14" fill="white"/>
</clipPath>
</defs>
</svg>
