<svg width="25" height="24" viewBox="0 0 25 24" fill="none" xmlns="http://www.w3.org/2000/svg">
<path d="M20.7313 7.71938L15.4813 2.46938C15.4116 2.39975 15.3289 2.34454 15.2378 2.3069C15.1468 2.26926 15.0492 2.24992 14.9507 2.25H5.95068C5.55286 2.25 5.17133 2.40804 4.89002 2.68934C4.60872 2.97064 4.45068 3.35218 4.45068 3.75V20.25C4.45068 20.6478 4.60872 21.0294 4.89002 21.3107C5.17133 21.592 5.55286 21.75 5.95068 21.75H19.4507C19.8485 21.75 20.23 21.592 20.5113 21.3107C20.7926 21.0294 20.9507 20.6478 20.9507 20.25V8.25C20.9508 8.15148 20.9314 8.05391 20.8938 7.96286C20.8561 7.87182 20.8009 7.78908 20.7313 7.71938ZM15.7007 4.81031L18.3904 7.5H15.7007V4.81031ZM19.4507 20.25H5.95068V3.75H14.2007V8.25C14.2007 8.44891 14.2797 8.63968 14.4204 8.78033C14.561 8.92098 14.7518 9 14.9507 9H19.4507V20.25ZM15.4813 14.4694C15.551 14.539 15.6064 14.6217 15.6441 14.7128C15.6818 14.8038 15.7013 14.9014 15.7013 15C15.7013 15.0986 15.6818 15.1962 15.6441 15.2872C15.6064 15.3783 15.551 15.461 15.4813 15.5306L13.2313 17.7806C13.1617 17.8504 13.0789 17.9057 12.9879 17.9434C12.8968 17.9812 12.7992 18.0006 12.7007 18.0006C12.6021 18.0006 12.5045 17.9812 12.4135 17.9434C12.3224 17.9057 12.2397 17.8504 12.1701 17.7806L9.92006 15.5306C9.77933 15.3899 9.70027 15.199 9.70027 15C9.70027 14.801 9.77933 14.6101 9.92006 14.4694C10.0608 14.3286 10.2517 14.2496 10.4507 14.2496C10.6497 14.2496 10.8406 14.3286 10.9813 14.4694L11.9507 15.4397V11.25C11.9507 11.0511 12.0297 10.8603 12.1704 10.7197C12.311 10.579 12.5018 10.5 12.7007 10.5C12.8996 10.5 13.0904 10.579 13.231 10.7197C13.3717 10.8603 13.4507 11.0511 13.4507 11.25V15.4397L14.4201 14.4694C14.4897 14.3996 14.5724 14.3443 14.6635 14.3066C14.7545 14.2688 14.8521 14.2494 14.9507 14.2494C15.0492 14.2494 15.1468 14.2688 15.2379 14.3066C15.3289 14.3443 15.4117 14.3996 15.4813 14.4694Z" fill="#323231"/>
</svg>
