<svg width="76" height="86" viewBox="0 0 76 86" fill="none" xmlns="http://www.w3.org/2000/svg">
<path d="M19.1573 63.9184C12.7302 57.7737 10.7382 40.3739 25.906 42.1488C28.2983 39.4545 30.5572 21.124 35.1481 16.806C38.5513 13.6054 45.8577 13.8848 45.2646 23.2532C44.5371 34.7464 34.1365 42.9988 37.0082 44.7236C39.5208 46.2333 50.1618 30.8439 52.5124 25.8792C55.3509 19.885 65.1788 22.9996 62.0761 33.3731C59.8486 40.8213 50.6685 46.2708 47.9732 48.3227C47.663 48.5588 47.848 49.0566 48.2371 49.032C54.5364 48.6393 57.881 58.3956 52.3007 60.4285C52.3007 60.4285 51.289 71.9502 40.8059 72.4133C40.8059 72.4133 45.3426 78.8219 35.5485 79.3761C25.7544 79.9303 15.1608 72.3464 14.3284 66.9886C13.4961 61.6308 19.1573 63.9184 19.1573 63.9184Z" fill="white"/>
<path fill-rule="evenodd" clip-rule="evenodd" d="M19.1573 63.9184C12.7302 57.7737 10.7382 40.3739 25.906 42.1488C28.2983 39.4545 30.5572 21.124 35.1481 16.806C38.5513 13.6054 45.8577 13.8848 45.2646 23.2532C44.5371 34.7464 34.1365 42.9988 37.0082 44.7236C39.5208 46.2333 50.1618 30.8439 52.5124 25.8792C55.3509 19.885 65.1788 22.9996 62.0761 33.3731C59.8486 40.8213 50.6685 46.2708 47.9732 48.3227C47.663 48.5588 47.848 49.0566 48.2371 49.032C54.5364 48.6393 57.881 58.3956 52.3007 60.4285C52.3007 60.4285 51.289 71.9502 40.8059 72.4133C40.8059 72.4133 45.3426 78.8219 35.5485 79.3761C25.7544 79.9303 15.1608 72.3464 14.3284 66.9886C13.4961 61.6308 19.1573 63.9184 19.1573 63.9184Z" stroke="#323231" stroke-width="3" stroke-miterlimit="2"/>
<path d="M26.6839 69.1177C26.6839 69.1177 33.5801 73.2453 40.8068 72.4131" stroke="#323231" stroke-width="3" stroke-miterlimit="2" stroke-linecap="round"/>
<path d="M25.906 42.1491C32.7729 43.2 38.9122 53.1859 36.5571 57.8908C34.2023 62.5952 27.8019 62.5482 23.213 50.8643" stroke="#323231" stroke-width="3" stroke-miterlimit="2" stroke-linecap="round"/>
<path d="M49.826 52.7697C45.3637 51.6866 35.9525 53.3392 39.0875 60.1679C41.6418 65.7315 52.3009 60.429 52.3009 60.429" stroke="#323231" stroke-width="3" stroke-miterlimit="2" stroke-linecap="round"/>
<path d="M57.8418 16.8055C66.5675 15.6935 72.0674 24.6935 69.1001 30.8672" stroke="#323231" stroke-width="3" stroke-linecap="round"/>
<path d="M29.6428 14.4464C31.7122 7.44394 43.2119 5.94397 47.4497 11.7273" stroke="#323231" stroke-width="3" stroke-linecap="round"/>
</svg>
