<svg width="24" height="24" viewBox="0 0 24 24" fill="none" xmlns="http://www.w3.org/2000/svg">
<g clip-path="url(#clip0_29_261)">
<path d="M9.66324 19.7583V14.4599H4.30652V0.0649414L24 19.7583H9.66324Z" fill="white"/>
<path d="M4.30656 15.8816H8.24162V19.7584H4.30656V15.8816ZM8.17116 21.8973H19.6724V21.2813H21.094V23.9351H19.6724V23.319H8.17116V23.9351H6.74946V21.2813H8.17116V21.8973ZM20.3437 13.9123L19.3417 12.9038L19.7787 12.4696L11.6726 4.31072L11.2355 4.74495L10.2335 3.7364L12.1161 1.86597L13.1181 2.87447L12.6811 3.30866L20.7872 11.4675L21.2243 11.0333L22.2263 12.0418L20.3437 13.9123ZM0 4.46199V3.04029H2.65383V4.46199H2.03777V15.9631H2.65383V17.3848H0V15.9631H0.616069V4.46199H0Z" fill="white"/>
</g>
<defs>
<clipPath id="clip0_29_261">
<rect width="24" height="24" fill="white"/>
</clipPath>
</defs>
</svg>
