<svg width="24" height="24" viewBox="0 0 24 24" fill="none" xmlns="http://www.w3.org/2000/svg">
<path d="M18.8151 16.855L17.9858 15.7194C16.6253 16.7131 15.0127 17.2383 13.3223 17.2383C8.95741 17.2383 5.40625 13.6871 5.40625 9.32227C5.40625 4.95741 8.95741 1.40625 13.3223 1.40625V0C8.18195 0 4 4.18195 4 9.32227C4 14.2703 7.87525 18.3296 12.7499 18.6264V19.875H11.1327C10.0342 19.875 9.1405 20.7687 9.1405 21.8672V24H17.6718V21.8672C17.6718 20.7687 16.778 19.875 15.6796 19.875H14.1561V18.6075C15.8413 18.459 17.4377 17.861 18.815 16.855H18.8151Z" fill="white"/>
<path d="M12.2132 4.62525C11.8259 5.70412 11.5901 7.10231 11.5341 8.61914H15.1103C15.0544 7.10227 14.8186 5.70408 14.4313 4.62525C13.9833 3.37664 13.51 3.04688 13.3223 3.04688C13.1345 3.04688 12.6612 3.37664 12.2132 4.62525ZM7.08643 8.61914H10.1272C10.1968 6.65498 10.5579 4.74225 11.1971 3.41747C8.99124 4.21383 7.35596 6.21295 7.08643 8.61914ZM15.4473 15.2271C17.6533 14.4307 19.2886 12.4316 19.5581 10.0254H16.5173C16.4477 11.9895 16.0866 13.9023 15.4474 15.2271H15.4473ZM19.5579 8.61914C19.2884 6.21295 17.6533 4.21383 15.4474 3.41747C16.0866 4.74225 16.4477 6.65498 16.5173 8.61914H19.5579ZM12.2132 14.0193C12.6612 15.2679 13.1346 15.5977 13.3223 15.5977C13.5099 15.5977 13.9833 15.2679 14.4313 14.0193C14.8186 12.9405 15.0544 11.5422 15.1103 10.0254H11.5341C11.5901 11.5423 11.8259 12.9405 12.2132 14.0193ZM7.08643 10.0254C7.35596 12.4316 8.99124 14.4307 11.1971 15.2271C10.5579 13.9023 10.1968 11.9895 10.1273 10.0254H7.08643Z" fill="white"/>
</svg>
