<svg width="28" height="28" viewBox="0 0 28 28" fill="none" xmlns="http://www.w3.org/2000/svg">
<g clip-path="url(#clip0_230_2100)">
<path d="M19.04 0H8.96C4.01153 0 0 4.01153 0 8.96V19.04C0 23.9885 4.01153 28 8.96 28H19.04C23.9885 28 28 23.9885 28 19.04V8.96C28 4.01153 23.9885 0 19.04 0Z" fill="white"/>
<path d="M16.2256 12.6025L13.9424 15.9742L10.5662 19.3335C9.31061 17.7376 7.93947 16.1918 7.10352 14.322L8.92333 11.5342L11.7144 8.84143C10.7816 9.99433 10.8512 11.69 11.9234 12.7622C13.0705 13.9093 14.9299 13.9093 16.0769 12.7622C16.1284 12.7108 16.178 12.6575 16.2256 12.6025Z" fill="#ECB72B"/>
<path d="M16.2782 12.5392C17.2192 11.3857 17.1525 9.68424 16.0768 8.60916C14.9297 7.46207 13.0704 7.46207 11.9233 8.60916C11.8756 8.65694 11.8295 8.70631 11.7852 8.75719L13.7106 5.62705L16.3229 3.35791C18.274 3.97554 19.8878 5.35076 20.8195 7.13817L18.9138 10.2111L16.2782 12.5392Z" fill="#5085F7"/>
<path d="M11.7143 8.84152L7.10323 14.3221C6.64591 13.3002 6.34861 12.1816 6.31793 10.9049C6.31561 10.832 6.31445 10.759 6.31445 10.686C6.31445 8.80754 6.98842 7.08574 8.10823 5.75061L11.7143 8.84152Z" fill="#DA2F2A"/>
<path d="M11.7141 8.84156L8.10791 5.75043C9.51797 4.06928 11.6339 3 14 3C14.8098 3 15.5903 3.1253 16.3231 3.3575L11.7141 8.84156Z" fill="#4274EB"/>
<path d="M21.6858 10.6856C21.6858 9.40603 21.3731 8.19947 20.82 7.13818L10.5659 19.3338C11.7309 20.8157 12.7954 22.341 13.2378 24.2088C13.252 24.2686 13.2673 24.3385 13.2835 24.4171C13.4439 25.1943 14.5567 25.1943 14.7171 24.4171C14.7333 24.3385 14.7486 24.2686 14.7628 24.2088C15.9422 19.2291 21.5435 16.6842 21.6826 10.9049C21.6846 10.832 21.6858 10.7589 21.6858 10.6856Z" fill="#60A850"/>
<path fill-rule="evenodd" clip-rule="evenodd" d="M19.04 0.56H8.96C6.73218 0.56 4.59561 1.445 3.0203 3.0203C1.445 4.59561 0.56 6.73218 0.56 8.96V19.04C0.56 21.2678 1.445 23.4044 3.0203 24.9797C4.59561 26.555 6.73218 27.44 8.96 27.44H19.04C21.2678 27.44 23.4044 26.555 24.9797 24.9797C26.555 23.4044 27.44 21.2678 27.44 19.04V8.96C27.44 6.73218 26.555 4.59561 24.9797 3.0203C23.4044 1.445 21.2678 0.56 19.04 0.56ZM8.96 0C6.58366 0 4.30465 0.943997 2.62432 2.62432C0.943997 4.30465 0 6.58366 0 8.96L0 19.04C0 21.4163 0.943997 23.6954 2.62432 25.3757C4.30465 27.056 6.58366 28 8.96 28H19.04C21.4163 28 23.6954 27.056 25.3757 25.3757C27.056 23.6954 28 21.4163 28 19.04V8.96C28 6.58366 27.056 4.30465 25.3757 2.62432C23.6954 0.943997 21.4163 0 19.04 0L8.96 0Z" fill="black" fill-opacity="0.12"/>
</g>
<defs>
<clipPath id="clip0_230_2100">
<rect width="28" height="28" fill="white"/>
</clipPath>
</defs>
</svg>
