<svg width="24" height="24" viewBox="0 0 24 24" fill="none" xmlns="http://www.w3.org/2000/svg">
<g clip-path="url(#clip0_29_221)">
<path d="M22.5938 18.375H14.1094C13.2703 18.375 12.5157 18.7444 12 19.3294C11.4843 18.7444 10.7297 18.375 9.89062 18.375H1.40625V21.1875H0V22.5938H8.89636L10.3026 24H13.6974L15.1036 22.5938H24V21.1875H22.5938V18.375ZM8.09906 2.85938H15.9009L12 0L8.09906 2.85938ZM2.85938 14.1562H21.1875V16.9688H2.85938V14.1562ZM2.85938 4.26562H21.1875V7.07812H2.85938V4.26562ZM4.26562 8.48438H7.07812V12.75H4.26562V8.48438ZM16.9219 8.48438H19.7812V12.75H16.9219V8.48438ZM10.5938 8.48438H13.4062V12.75H10.5938V8.48438Z" fill="white"/>
</g>
<defs>
<clipPath id="clip0_29_221">
<rect width="24" height="24" fill="white"/>
</clipPath>
</defs>
</svg>
