<svg width="28" height="28" viewBox="0 0 28 28" fill="none" xmlns="http://www.w3.org/2000/svg">
<rect width="28" height="28" rx="14" fill="white"/>
<path d="M19.1649 14C19.1649 15.2913 16.8525 18.5194 14 18.5194C11.1475 18.5194 8.83502 15.2913 8.83502 14C8.83502 11.1475 11.1475 8.83508 14 8.83508C16.8525 8.83508 19.1649 11.1475 19.1649 14Z" fill="#D80027"/>
<path d="M19.1649 14C19.1649 16.8526 16.8525 19.165 14 19.165C11.1475 19.165 8.83502 16.8526 8.83502 14" fill="#0052B4"/>
<path d="M19.4787 18.5659L20.8482 17.1963L21.7611 18.1092L20.3915 19.4788L19.4787 18.5659ZM17.1961 20.8482L18.5656 19.4787L19.4785 20.3916L18.1089 21.7611L17.1961 20.8482ZM22.2178 21.3038L23.5874 19.9342L24.5003 20.8471L23.1307 22.2167L22.2178 21.3038ZM19.9352 23.5874L21.3048 22.2178L22.2176 23.1307L20.8481 24.5003L19.9352 23.5874ZM20.8483 19.9348L22.2178 18.5653L23.1307 19.4782L21.7611 20.8476L20.8483 19.9348ZM18.5657 22.2178L19.9352 20.8483L20.8481 21.7612L19.4786 23.1307L18.5657 22.2178ZM22.2173 9.43414L18.5653 5.78211L19.4782 4.86927L23.1302 8.52124L22.2173 9.43414ZM18.566 8.52102L17.1965 7.15143L18.1093 6.23859L19.4789 7.60813L18.566 8.52102ZM20.848 10.8037L19.4785 9.4342L20.3914 8.52135L21.7609 9.89084L20.848 10.8037ZM21.304 5.78244L19.9344 4.4129L20.8473 3.50005L22.2168 4.86959L21.304 5.78244ZM23.5871 8.0646L22.2176 6.69506L23.1305 5.78222L24.5 7.1517L23.5871 8.0646ZM4.41284 19.9352L8.06481 23.5873L7.15192 24.5001L3.49999 20.8481L4.41284 19.9352ZM8.06443 20.8478L9.43397 22.2173L8.52113 23.1302L7.15153 21.7606L8.06443 20.8478ZM5.78221 18.5653L7.15181 19.9349L6.23896 20.8478L4.86931 19.4782L5.78221 18.5653ZM7.15208 17.1963L10.8041 20.8483L9.89121 21.7612L6.23924 18.1092L7.15208 17.1963ZM8.06476 4.4129L4.41284 8.06493L3.49994 7.15203L7.15197 3.5L8.06476 4.4129ZM9.43413 5.78266L5.78216 9.43463L4.86931 8.52173L8.52129 4.86976L9.43413 5.78266ZM10.8037 7.1522L7.1517 10.8042L6.23885 9.89133L9.89088 6.23935L10.8037 7.1522Z" fill="black"/>
</svg>
