<svg width="249" height="15" viewBox="0 0 249 15" fill="none" xmlns="http://www.w3.org/2000/svg">
<path fill-rule="evenodd" clip-rule="evenodd" d="M82.5487 1.32502C55.0903 1.0142 27.5198 2.15012 0.942288 6.91984C0.468099 7.00461 0.271247 7.17133 0.23245 7.20948C0.00541431 7.43553 -0.0190557 7.6757 0.00968302 7.8735C0.0269262 7.99359 0.143369 8.50079 0.779931 8.55307C1.21963 8.58839 4.34061 8.34115 5.54476 8.27757C11.2135 7.97946 16.8707 7.5542 22.5251 7.06254C35.3454 5.95205 48.1485 4.99133 60.9889 4.11678C68.198 3.62512 75.41 3.21821 82.6177 2.88478C99.9572 3.08399 117.254 3.86106 134.227 4.66355C127.48 5.07186 121.281 5.48581 116.141 5.75425C107.474 6.20636 98.822 6.7404 90.1717 7.44399C85.7272 7.80427 81.2885 8.19563 76.8527 8.65763C76.3612 8.70991 75.2419 8.76359 74.7001 8.82716C74.4702 8.85259 74.3036 8.89357 74.2289 8.92183C73.7604 9.09985 73.7015 9.46434 73.6958 9.64801C73.6929 9.75962 73.7317 10.3686 74.522 10.4872C111.269 16.0566 149.606 9.57738 186.485 14.9914C186.918 15.0549 187.323 14.7611 187.388 14.3344C187.452 13.9091 187.153 13.5107 186.719 13.4471C151.986 8.34821 115.957 13.8003 81.1793 9.79778C84.2185 9.50815 87.259 9.24677 90.3024 8.99953C98.937 8.29735 107.573 7.76472 116.226 7.31261C124.934 6.85909 136.705 5.97324 149.027 5.41517C159.602 5.99443 170.17 6.64433 180.746 7.19533C185.208 7.42704 189.671 7.61919 194.131 7.85513C195.965 7.95121 200.682 8.35386 201.366 8.2041C201.898 8.08683 202.026 7.71244 202.057 7.52454C202.09 7.32109 202.07 7.06818 201.829 6.82659C201.754 6.75029 201.53 6.59206 201.07 6.46208C188.633 2.95967 168.269 3.01477 149.197 3.86105C145.094 3.635 140.992 3.42025 136.888 3.22669C127.493 2.78165 117.995 2.33519 108.442 1.98339C135.363 1.32925 162.297 1.51716 189.238 1.99046C200.55 2.18967 231.04 3.39059 243.049 4.45162C242.902 4.59997 242.816 4.80624 242.826 5.03088C242.846 5.46038 243.218 5.79381 243.656 5.77403C246.134 5.66101 247.566 5.5169 248.134 5.36855C248.487 5.27672 248.68 5.12978 248.769 5.03371C248.988 4.80201 249.028 4.55334 248.985 4.31739C248.957 4.17046 248.89 4.0094 248.735 3.86105C248.631 3.75933 248.378 3.60392 247.947 3.49796C243.227 2.34368 202.735 0.666632 189.267 0.429276C153.676 -0.195196 118.098 -0.322339 82.5487 1.32502ZM191.443 6.15408C184.488 5.22585 176.335 4.89948 167.829 4.92068C172.162 5.16792 176.496 5.40953 180.831 5.63558C184.367 5.82066 187.905 5.97889 191.443 6.15408ZM49.7464 3.34114C40.6218 4.00235 31.5073 4.71723 22.3857 5.50842C21.3324 5.59884 20.2806 5.68785 19.2273 5.77545C29.3146 4.56041 39.5068 3.7876 49.7464 3.34114Z" fill="#E13B22"/>
</svg>
