<svg width="24" height="24" viewBox="0 0 24 24" fill="none" xmlns="http://www.w3.org/2000/svg">
<g clip-path="url(#clip0_29_244)">
<path d="M21.8438 16.9688H20.4375C18.9047 16.9688 17.3017 17.475 15.7828 18.4173C16.0641 18.3891 16.3594 18.375 16.6406 18.375H24V2.8125H21.8438V16.9688ZM12 21.3296C11.7545 21.208 10.145 19.7812 7.35553 19.7812H0V22.5938H7.35553C7.83966 22.5938 8.45016 22.8115 9.22045 23.2584C10.0561 23.7431 11.0175 24 12 24C12.9825 24 13.9439 23.7431 14.7795 23.2584C15.55 22.8115 16.1603 22.5938 16.6445 22.5938H24V19.7812H16.6445C13.8779 19.7812 12.2347 21.2133 12 21.3296ZM11.2969 19.3171V3.7575C10.099 3.17016 8.89913 2.8125 7.35938 2.8125H0V18.375H7.35938C9.04008 18.375 10.1181 18.7502 11.2969 19.3171ZM2.10938 5.67188H9.1875V7.07812H2.10938V5.67188ZM2.10938 8.53125H9.1875V9.9375H2.10938V8.53125ZM2.10938 11.3438H9.1875V12.75H2.10938V11.3438ZM2.10938 14.1562H9.1875V15.5625H2.10938V14.1562Z" fill="white"/>
<path d="M20.4375 15.5625V0C17.7973 0 15.0216 1.27425 12.7031 3.51727V19.0792C15.0224 16.8362 17.801 15.5625 20.4375 15.5625Z" fill="white"/>
</g>
<defs>
<clipPath id="clip0_29_244">
<rect width="24" height="24" fill="white"/>
</clipPath>
</defs>
</svg>
