<svg width="238" height="52" viewBox="0 0 238 52" fill="none" xmlns="http://www.w3.org/2000/svg">
<path fill-rule="evenodd" clip-rule="evenodd" d="M12.8214 10.8755C16.8672 8.97468 27.9163 6.31432 39.75 10.8755V30.6429L26.3786 39.4987L12.8214 30.6429V10.8755ZM14.6786 12.5357V29.2045L26.4844 36.8987L37.8928 29.1943V12.4884C28.1893 8.77318 17.9963 10.9869 14.6786 12.5357ZM16.5357 13.7355C19.9166 12.3584 27.6739 10.7817 36.0357 13.7735V28.2082L26.4658 34.6701L16.5357 28.198V13.7355Z" fill="#E13B22"/>
<path fill-rule="evenodd" clip-rule="evenodd" d="M21.133 22.9711C21.2194 23.0862 21.224 23.2395 21.1767 23.3741C21.0913 23.6155 21.1525 23.8384 21.2445 24.0612C21.3735 24.3714 21.4515 24.6964 21.523 25.0205C21.5555 25.169 21.5732 25.3232 21.5695 25.4736C21.5611 25.7652 21.4367 25.911 21.1303 25.9602C20.7625 26.0187 20.3911 26.0177 20.029 25.9249C19.7355 25.8515 19.6473 25.7401 19.6557 25.443C19.6696 24.9824 19.7931 24.5404 19.9519 24.1067C20.0308 23.8932 20.0828 23.6926 19.9695 23.467C19.8618 23.2525 19.8999 23.024 20.0726 22.8448C20.2323 22.6758 20.276 22.4864 20.2704 22.271C20.2648 21.9385 20.2778 21.607 20.2695 21.2746C20.2602 20.9292 20.1822 20.8372 19.833 20.7435C19.6065 20.6831 19.3734 20.6376 19.1468 20.58C19.0159 20.5466 18.885 20.4974 18.8608 20.3507C18.833 20.1817 18.9639 20.1 19.0995 20.0405C19.5275 19.8502 19.9575 19.6654 20.3874 19.4815C21.4627 19.02 22.537 18.5576 23.6142 18.0989C23.8974 17.98 24.1834 17.8686 24.475 17.7683C24.8724 17.6318 25.2782 17.6095 25.6979 17.6875C28.1911 18.149 30.6871 18.6022 33.1813 19.0637C33.3893 19.1017 33.6632 19.0962 33.7087 19.3608C33.7542 19.6227 33.496 19.6997 33.3113 19.801C31.9203 20.5633 30.5209 21.3127 29.1401 22.089C28.557 22.4167 27.9655 22.4873 27.3118 22.3452C25.4268 21.9292 23.539 21.53 21.6512 21.1251C20.965 20.9775 20.9436 20.9942 20.9371 21.6395C20.9362 21.7361 20.9371 21.8327 20.9371 21.9292C20.9399 22.2867 20.8907 22.6498 21.133 22.9711ZM22.1443 22.1632C22.1582 21.7575 22.2724 21.6692 22.6986 21.7575C23.9847 22.0221 25.2661 22.2979 26.5494 22.57C26.9533 22.6554 27.3563 22.7473 27.7612 22.829C28.2849 22.9321 28.7854 22.8987 29.2534 22.6182C29.6155 22.4037 29.9916 22.2087 30.3686 22.0175C30.7456 21.8262 30.8858 21.8977 30.8905 22.2997C30.896 22.9516 30.8793 23.6016 30.8738 24.2525C30.871 24.5552 30.7205 24.78 30.4559 24.9434C30.2442 25.0734 30.0158 25.17 29.7771 25.2461C28.6916 25.5887 27.5857 25.8283 26.4315 25.806C25.2828 25.7837 24.1732 25.56 23.0942 25.1969C22.928 25.1412 22.7701 25.0613 22.616 24.9796C22.2938 24.8087 22.1238 24.558 22.1387 24.1977C22.1526 23.8672 22.1415 23.5338 22.1415 23.2023C22.1415 22.856 22.1322 22.5087 22.1443 22.1632Z" fill="white"/>
<path d="M51.1361 18.8408C51.0321 18.7656 50.9114 18.7164 50.7842 18.6969C50.657 18.6774 50.527 18.6885 50.4044 18.7294L48.3978 19.398C48.8175 18.4016 49.0338 17.3309 49.0357 16.2501C49.0366 15.0736 48.8119 13.9073 48.3746 12.8153L47.3531 10.2608C47.3076 10.1466 47.2361 10.0444 47.1451 9.96181C47.0532 9.87916 46.9446 9.81788 46.8266 9.78352C46.7087 9.74824 46.5843 9.74081 46.4626 9.76124C46.341 9.78166 46.2258 9.82902 46.1265 9.90145L44.1523 11.312C42.6239 12.4467 41.2329 14.2574 40.7649 15.3837C40.3285 16.4312 40.1028 17.5538 40.0982 18.6876C40.1019 19.5883 40.4037 20.4621 40.9581 21.1725C41.5124 21.8828 42.2868 22.388 43.1597 22.6108C43.1346 22.6359 43.1049 22.6563 43.0789 22.6823C42.6471 23.1113 42.3054 23.622 42.0723 24.1838C41.8402 24.7465 41.7213 25.3492 41.7232 25.9583C41.7269 26.9352 42.0826 27.8786 42.7251 28.615C41.8968 28.7412 41.0843 28.9585 40.3034 29.2649C39.7648 29.4757 39.2764 29.797 38.8688 30.2074C38.4611 30.6188 38.1436 31.1091 37.9365 31.6495C37.7294 32.1899 37.6375 32.7675 37.6653 33.3451C37.6941 33.9227 37.8427 34.4891 38.1018 35.0063C37.6858 34.9617 37.267 34.9385 36.8482 34.9376C35.8258 34.9413 34.8416 35.3304 34.0941 36.0277C33.3466 36.726 32.8897 37.6806 32.8154 38.7002C32.7913 38.6751 32.7699 38.6472 32.7448 38.6231C32.3093 38.1857 31.7838 37.8496 31.2053 37.636C30.6258 37.4234 30.0074 37.3389 29.3927 37.389C28.778 37.4401 28.1809 37.624 27.6442 37.9285C27.1084 38.2331 26.6441 38.651 26.2857 39.1524C25.9273 38.651 25.4639 38.2331 24.9272 37.9285C24.3905 37.624 23.7943 37.4401 23.1796 37.389C22.5649 37.3389 21.9465 37.4234 21.3671 37.636C20.7886 37.8496 20.263 38.1857 19.8275 38.6231C19.8015 38.6472 19.7801 38.6751 19.756 38.7002C19.6817 37.6806 19.2258 36.726 18.4773 36.0277C17.7298 35.3304 16.7456 34.9404 15.7232 34.9376C15.3044 34.9394 14.8856 34.9636 14.4696 35.0091C14.7287 34.4919 14.8773 33.9264 14.9061 33.3488C14.9339 32.7703 14.842 32.1927 14.6349 31.6532C14.4278 31.1128 14.1103 30.6216 13.7026 30.2112C13.295 29.8007 12.8066 29.4794 12.268 29.2677C11.4871 28.9622 10.6755 28.744 9.84628 28.6177C10.4898 27.8804 10.8454 26.9361 10.8482 25.9583C10.8501 25.3492 10.7312 24.7465 10.4981 24.1838C10.2651 23.6211 9.92335 23.1113 9.49156 22.6823C9.46649 22.6563 9.43678 22.6359 9.40985 22.6108C10.2836 22.3889 11.0581 21.8828 11.6124 21.1734C12.1668 20.463 12.4695 19.5883 12.4732 18.6876C12.4695 17.5538 12.2429 16.4312 11.8074 15.3837C11.4035 14.4143 10.9262 13.1979 8.42092 11.311L6.44492 9.90145C6.34556 9.82902 6.23042 9.78166 6.10878 9.76124C5.98713 9.74081 5.86271 9.74824 5.74478 9.78352C5.62685 9.81788 5.51821 9.87916 5.42628 9.96181C5.33528 10.0444 5.26378 10.1466 5.21828 10.2608L4.19685 12.8144C3.75949 13.9064 3.53478 15.0727 3.53571 16.2501C3.53756 17.3309 3.75485 18.4016 4.17456 19.398L2.16792 18.7294C2.04535 18.6885 1.91535 18.6774 1.78813 18.6969C1.66092 18.7164 1.54021 18.7656 1.43528 18.8408C1.33128 18.916 1.24585 19.0154 1.18735 19.1296C1.12885 19.2447 1.09821 19.371 1.09821 19.5001V21.5671C1.10099 24.0937 1.96085 26.5442 3.53571 28.5184C3.65271 28.6623 3.77806 28.7988 3.91363 28.9251C3.89228 28.9307 3.87092 28.9344 3.84956 28.94L2.52449 29.2715C2.41306 29.2984 2.30906 29.3495 2.21899 29.42C2.12892 29.4915 2.05463 29.5797 2.00171 29.681C1.94785 29.7831 1.91628 29.8945 1.90978 30.0087C1.90235 30.123 1.91906 30.2372 1.95992 30.3449L2.44742 31.6523C2.95999 33.0052 3.79571 34.2124 4.88213 35.1679C5.96856 36.1234 7.27321 36.7985 8.68092 37.1337C8.43856 37.2962 8.20363 37.4689 7.97521 37.6509L7.08192 38.3622C6.98628 38.4383 6.90921 38.5349 6.85628 38.6445C6.80335 38.755 6.77642 38.8747 6.77642 38.9973C6.77642 39.119 6.80335 39.2387 6.85628 39.3492C6.90921 39.4588 6.98628 39.5554 7.08192 39.6315L7.97521 40.3428C10.1759 42.1006 12.9068 43.0598 15.7232 43.0626C16.1438 43.057 16.5617 42.9855 16.9601 42.8499C16.4586 43.9847 16.1123 45.1816 15.9331 46.4092L15.7316 47.8234C15.7148 47.9385 15.7232 48.0555 15.7566 48.167C15.7891 48.2793 15.8458 48.3824 15.9219 48.4697C15.9981 48.5579 16.0928 48.6285 16.1986 48.6767C16.3045 48.725 16.4196 48.7501 16.5357 48.7501C16.5747 48.7501 16.6128 48.7473 16.6508 48.7417L18.0641 48.5393C21.0114 48.1131 23.7423 46.7472 25.8521 44.6458C26.0108 44.4824 26.1557 44.306 26.2857 44.1193C26.4166 44.3069 26.5615 44.4842 26.7203 44.6486C28.83 46.75 31.5609 48.115 34.5073 48.5412L35.9206 48.7436C35.9586 48.7482 35.9976 48.751 36.0357 48.7501C36.1518 48.7501 36.2669 48.725 36.3728 48.6767C36.4786 48.6285 36.5733 48.5579 36.6495 48.4697C36.7256 48.3824 36.7823 48.2793 36.8148 48.167C36.8482 48.0555 36.8566 47.9385 36.8398 47.8234L36.6383 46.4092C36.4591 45.1816 36.1137 43.9847 35.6113 42.8499C36.0097 42.9855 36.4276 43.057 36.8482 43.0626C39.6618 43.0589 42.3909 42.1015 44.5906 40.3465L45.4839 39.6343C45.5796 39.5582 45.6566 39.4616 45.7086 39.352C45.7616 39.2425 45.7894 39.1217 45.7894 39.0001C45.7894 38.8785 45.7616 38.7577 45.7086 38.6482C45.6566 38.5386 45.5796 38.442 45.4839 38.3659L44.5906 37.6537C44.3631 37.4707 44.1254 37.3017 43.8849 37.1374C45.2926 36.8012 46.5973 36.1262 47.6837 35.1707C48.7701 34.2152 49.6058 33.008 50.1184 31.6551L50.6059 30.3477C50.6468 30.24 50.6635 30.1257 50.6561 30.0106C50.6486 29.8964 50.6171 29.7849 50.5632 29.6837C50.5093 29.5816 50.4351 29.4934 50.3441 29.4228C50.2531 29.3522 50.1491 29.3012 50.0376 29.2742L48.7116 28.9427C48.6912 28.9372 48.6689 28.9344 48.6485 28.9288C48.7859 28.8016 48.9159 28.6642 49.0357 28.5184C50.6115 26.5424 51.4704 24.091 51.4732 21.5643V19.5001C51.4732 19.371 51.4426 19.2447 51.3841 19.1296C51.3256 19.0154 51.2401 18.916 51.1361 18.8408ZM5.70671 13.4179L6.34278 11.8254L7.88699 12.9249C8.80256 13.5814 9.54821 14.4459 10.0636 15.4487C10.5789 16.4507 10.8473 17.5612 10.8482 18.6876C10.8482 19.0117 10.7832 19.332 10.6578 19.6301C10.5325 19.9282 10.3486 20.1984 10.1174 20.425L8.36892 15.1813L6.82471 15.6948L8.62706 21.1028C8.55371 21.1093 8.4822 21.1251 8.40792 21.1251C8.02906 21.1242 7.65671 21.036 7.31778 20.866C6.97978 20.697 6.68542 20.4519 6.45699 20.1501C5.61756 19.0228 5.16256 17.656 5.16071 16.2501C5.15978 15.2797 5.34549 14.3177 5.70671 13.4179ZM2.72321 21.5671V20.6274L3.66942 20.9431C5.42906 21.5318 7.02899 22.5207 8.34292 23.8309C8.62242 24.1095 8.84435 24.441 8.99571 24.806C9.14706 25.1709 9.22413 25.5627 9.22321 25.9583C9.22228 26.4328 9.08392 26.8971 8.82485 27.2955L5.81906 23.0909L4.50049 24.0343L7.54249 28.2937C7.28528 28.3865 7.01506 28.4348 6.74299 28.4376C6.37063 28.4385 6.00292 28.3549 5.66771 28.1943C5.33249 28.0327 5.03813 27.7978 4.80692 27.5062C3.45956 25.819 2.72506 23.726 2.72321 21.5671ZM3.97492 31.085L3.80406 30.6299L4.24606 30.5195C6.68449 29.8267 9.27985 29.9168 11.6644 30.7767C12.0823 30.942 12.4491 31.214 12.7286 31.566C13.0081 31.9179 13.1901 32.3367 13.2569 32.7805L7.01878 30.9113L6.55263 32.4685L12.9653 34.3925C12.7462 34.8011 12.4212 35.1437 12.0238 35.3824C11.6254 35.622 11.1704 35.7482 10.7071 35.7501C9.24456 35.7455 7.81735 35.297 6.61578 34.464C5.41328 33.6311 4.49213 32.4527 3.97492 31.085ZM8.99663 39.0818L8.8982 39.0001L8.99571 38.9193C10.9076 37.3955 13.2792 36.5644 15.7232 36.5626C16.2256 36.5644 16.7149 36.7223 17.1244 37.013C17.5339 37.3036 17.8441 37.714 18.0112 38.1876H12.4732V39.8126H18.0112C17.8441 40.2862 17.5339 40.6966 17.1244 40.9872C16.7149 41.2779 16.2256 41.4357 15.7232 41.4376C13.2792 41.4357 10.9076 40.6047 8.99663 39.0818ZM24.7025 43.5009C22.8407 45.3525 20.4338 46.555 17.8357 46.9319L17.4949 46.9793L17.5432 46.6395C17.9193 44.0404 19.1246 41.6317 20.9789 39.7708C21.3123 39.43 21.7348 39.1886 22.1981 39.0744C22.6615 38.9602 23.1471 38.9778 23.6012 39.1254L19.9835 43.3458L21.2166 44.4025L24.9393 40.0587C25.3237 40.5629 25.5122 41.1897 25.4686 41.822C25.4258 42.4544 25.1538 43.0496 24.7034 43.4962L24.7025 43.5009ZM34.7357 46.9319C32.1376 46.555 29.7288 45.3506 27.8689 43.4981C27.4186 43.0515 27.1465 42.4562 27.1028 41.8239C27.0592 41.1915 27.2477 40.5647 27.6321 40.0605L31.3548 44.4044L32.5879 43.3477L28.9702 39.1273C29.4243 38.9797 29.9108 38.9629 30.3751 39.0772C30.8385 39.1923 31.261 39.4347 31.5934 39.7773C33.4468 41.6354 34.6521 44.0404 35.0301 46.6376L35.0784 46.9793L34.7357 46.9319ZM43.5748 39.0818C41.6638 40.6047 39.2922 41.4357 36.8482 41.4376C36.3458 41.4357 35.8565 41.2779 35.447 40.9872C35.0375 40.6966 34.7273 40.2862 34.5602 39.8126H40.0982V38.1876H34.5602C34.7273 37.714 35.0375 37.3036 35.447 37.013C35.8565 36.7223 36.3458 36.5644 36.8482 36.5626C39.2922 36.5644 41.6638 37.3955 43.5748 38.9193L43.6723 39.0001L43.5748 39.0818ZM44.6881 12.9286L46.2314 11.8282L46.8684 13.4217C47.2278 14.3215 47.4126 15.2816 47.4107 16.2501C47.4079 17.656 46.952 19.0237 46.1107 20.1501C45.8832 20.4519 45.5888 20.697 45.2499 20.866C44.9119 21.036 44.5386 21.1242 44.1607 21.1251C44.0864 21.1251 44.0149 21.1093 43.9416 21.1028L45.7439 15.6948L44.1997 15.1813L42.4549 20.425C42.2228 20.1984 42.0389 19.9282 41.9136 19.6301C41.7882 19.332 41.7232 19.0117 41.7232 18.6876C41.7241 17.5603 41.9934 16.4507 42.5097 15.4478C43.0251 14.4459 43.7716 13.5814 44.6881 12.9249V12.9286ZM48.7673 30.6318L48.5974 31.0868C48.0783 32.4537 47.1581 33.632 45.9556 34.465C44.7531 35.297 43.3268 35.7455 41.8643 35.7501C41.4001 35.7482 40.9451 35.621 40.5476 35.3815C40.1502 35.1419 39.8243 34.7992 39.6061 34.3897L46.0188 32.4657L45.5526 30.9094L39.3154 32.7777C39.3823 32.3339 39.5652 31.9151 39.8456 31.5641C40.1251 31.2131 40.4928 30.941 40.9107 30.7767C42.0891 30.305 43.3463 30.0617 44.6157 30.0626C45.8665 30.0626 47.1126 30.2158 48.3253 30.5195L48.7673 30.6318ZM49.8482 21.5671C49.8463 23.7251 49.1118 25.819 47.7654 27.5062C47.5342 27.7978 47.2389 28.0327 46.9037 28.1943C46.5685 28.3549 46.2008 28.4385 45.8284 28.4376C45.5563 28.4348 45.2861 28.3865 45.0289 28.2937L48.0709 24.0343L46.7505 23.0909L43.7438 27.2955C43.4856 26.8971 43.3482 26.4328 43.3482 25.9583C43.3473 25.5627 43.4243 25.1709 43.5757 24.806C43.7271 24.441 43.949 24.1095 44.2294 23.8309C45.5424 22.5207 47.1423 21.5318 48.902 20.9431L49.8482 20.6274V21.5671Z" fill="#E13B22"/>
<path fill-rule="evenodd" clip-rule="evenodd" d="M173.385 24.5672C172.887 25.2418 172.387 25.9188 171.889 26.5934C171.78 26.7398 171.68 26.8911 171.566 27.0303C171.16 27.5249 171.048 27.5369 170.667 27.0447C170.149 26.3773 169.664 25.6859 169.163 25.0066C169.057 24.8649 168.94 24.7305 168.823 24.5864C168.518 24.7209 168.633 24.9561 168.633 25.1338C168.622 26.8455 168.633 28.5572 168.622 30.2713C168.615 31.1979 168.516 31.2916 167.553 31.3156C166.956 31.3324 166.357 31.3132 165.76 31.306C165.272 31.2964 165.003 31.0659 164.988 30.5977C164.978 30.3625 164.968 30.1272 164.968 29.8896C164.965 26.7326 164.965 23.5733 164.965 20.414C164.965 20.354 164.965 20.2964 164.968 20.2364C164.988 19.1129 165.059 19.0288 166.268 19.0409C168.734 19.0625 168.163 18.7552 169.542 20.7165C169.923 21.2591 170.284 21.8136 170.675 22.349C171.061 22.8795 171.16 22.8843 171.531 22.3658C172.105 21.5544 172.686 20.7477 173.207 19.9051C173.596 19.2737 174.096 18.9592 174.886 19.0289C175.384 19.0721 175.892 19.0241 176.394 19.0481C177.042 19.0793 177.162 19.1897 177.23 19.7731C177.255 20.0059 177.248 20.2436 177.248 20.4813C177.25 23.6094 177.25 26.7399 177.248 29.8679C177.248 30.0168 177.25 30.1632 177.243 30.3121C177.202 31.1643 177.085 31.2844 176.194 31.3156C175.66 31.3348 175.125 31.3348 174.594 31.3156C173.728 31.282 173.608 31.1787 173.601 30.3745C173.585 28.7516 173.596 27.1288 173.593 25.5059V24.6296C173.524 24.608 173.456 24.5888 173.385 24.5672ZM139.391 26.4758C139.043 26.7326 138.954 27.0591 138.797 27.3376C137.814 29.0925 136.704 30.7706 135.355 32.2998C134.69 33.0536 134.614 33.0512 133.75 32.4631C133.318 32.1678 132.887 31.8725 132.465 31.5652C131.805 31.0827 131.789 31.0467 132.31 30.4633C133.28 29.371 134.141 28.2139 134.906 26.9871C135.536 25.9716 135.386 26.0413 134.639 25.4915C133.669 24.7761 132.991 23.883 132.808 22.6995C132.567 21.1679 133.293 19.9507 134.819 19.3865C135.472 19.1489 136.153 19.0409 136.849 19.0409C138.578 19.0385 140.306 19.0312 142.035 19.0409C142.96 19.0457 143.038 19.1129 143.292 19.9195C143.417 20.3156 143.524 20.7165 143.635 21.1174C143.724 21.4343 143.785 21.7368 143.503 22.0273C143.201 22.3394 143.29 22.7547 143.29 23.1316C143.282 25.3739 143.29 27.6185 143.285 29.8631C143.282 31.2723 143.231 31.3156 141.766 31.3228C141.327 31.3252 140.885 31.3348 140.448 31.3107C139.716 31.2699 139.577 31.1547 139.551 30.4489C139.516 29.4742 139.538 28.5019 139.526 27.5273C139.521 27.208 139.592 26.8791 139.391 26.4758ZM139.505 23.715C139.531 21.9697 139.653 21.9097 137.687 21.9817C136.795 22.0129 136.526 22.5146 137.006 23.2325C137.499 23.9719 138.23 24.4856 138.995 24.9537C139.302 25.141 139.478 24.9777 139.5 24.6849C139.526 24.3632 139.505 24.0367 139.505 23.715ZM159.375 23.8422C159.042 23.7774 158.918 23.9791 158.765 24.1135C157.894 24.8793 157.038 25.6643 156.159 26.423C155.735 26.7879 155.535 27.208 155.547 27.7505C155.568 28.6076 155.565 29.4646 155.54 30.3217C155.517 31.1667 155.382 31.2916 154.483 31.3156C153.856 31.3324 153.228 31.3156 152.598 31.2963C152.151 31.2843 151.903 31.0683 151.905 30.629C151.908 30.4225 151.895 30.216 151.895 30.0096C151.895 26.7903 151.895 23.5709 151.895 20.3516C151.895 20.2028 151.892 20.0539 151.9 19.9075C151.941 19.1849 152.035 19.0769 152.776 19.0481C153.404 19.0241 154.033 19.024 154.661 19.0457C155.359 19.0721 155.489 19.1825 155.529 19.8307C155.568 20.39 155.542 20.9518 155.552 21.5136C155.557 21.7728 155.514 22.0417 155.654 22.2794C155.992 22.3394 156.116 22.0897 156.284 21.9385C157.147 21.1631 158.011 20.3828 158.854 19.5906C159.255 19.2113 159.7 19.0096 160.279 19.0313C160.939 19.0577 161.602 19.0217 162.26 19.0505C162.898 19.0745 163.012 19.1969 163.078 19.7899C163.101 19.9963 163.096 20.2028 163.096 20.4092C163.098 23.5709 163.098 26.7302 163.096 29.892C163.096 30.1272 163.086 30.3649 163.075 30.6001C163.058 31.0659 162.791 31.3012 162.301 31.3036C161.64 31.3108 160.977 31.3348 160.32 31.306C159.578 31.2723 159.459 31.1571 159.448 30.4393C159.431 28.9629 159.451 27.4865 159.436 26.01C159.428 25.285 159.509 24.5504 159.375 23.8422ZM232.711 26.2405C232.282 26.9895 231.86 27.7457 231.421 28.4875C230.593 29.8847 229.64 31.2003 228.546 32.4223C228.007 33.0224 227.918 33.0272 227.222 32.5711C226.709 32.2326 226.199 31.8869 225.706 31.522C225.129 31.0995 225.114 30.9987 225.602 30.4609C226.567 29.4022 227.405 28.2643 228.154 27.0663C228.266 26.8887 228.368 26.7038 228.474 26.5238C228.655 26.2165 228.591 25.9716 228.292 25.7532C227.994 25.5371 227.707 25.3066 227.436 25.0642C226.951 24.6321 226.572 24.1255 226.331 23.5373C225.495 21.5136 226.521 19.6842 228.772 19.1993C229.137 19.1201 229.516 19.0577 229.887 19.0528C231.741 19.036 233.595 19.0312 235.449 19.0432C236.257 19.048 236.333 19.1225 236.566 19.8499C236.686 20.2172 236.795 20.5869 236.894 20.959C237.001 21.3575 237.13 21.7368 236.709 22.0945C236.442 22.3226 236.546 22.7091 236.546 23.0308C236.541 25.273 236.544 27.5153 236.541 29.7575C236.541 30.024 236.551 30.2905 236.531 30.5545C236.483 31.1451 236.373 31.2699 235.726 31.3036C235.068 31.3372 234.405 31.3372 233.747 31.3084C233.021 31.2747 232.886 31.1451 232.871 30.4369C232.851 29.2582 232.861 28.077 232.861 26.8959V26.2837C232.813 26.2693 232.762 26.2549 232.711 26.2405ZM232.848 23.6406C232.851 21.9865 233.089 21.9145 231.06 21.9793C230.151 22.0081 229.854 22.5602 230.349 23.2925C230.847 24.0295 231.593 24.5288 232.36 24.9921C232.67 25.1794 232.833 24.9945 232.843 24.6993C232.858 24.3464 232.848 23.9935 232.848 23.6406ZM189.754 25.165C189.754 26.8479 189.759 28.5308 189.752 30.2136C189.747 31.2315 189.665 31.3011 188.555 31.3204C188.019 31.33 187.486 31.3372 186.953 31.3084C186.264 31.2699 186.125 31.1427 186.094 30.5089C186.064 29.9208 186.079 29.3302 186.079 28.7396C186.076 26.8215 186.084 24.9033 186.074 22.9852C186.069 22.1089 185.957 22.0129 185.048 21.9937C184.578 21.9841 184.106 21.9913 183.636 22.0009C183.186 22.0105 182.937 22.2266 182.919 22.6563C182.909 22.9228 182.902 23.1892 182.904 23.4533C182.912 25.8132 182.907 28.1755 182.947 30.5353C182.955 31.0731 182.785 31.4308 182.297 31.6997C181.703 32.0286 181.136 32.4079 180.545 32.7392C179.973 33.0585 179.795 32.9984 179.569 32.4103C179.201 31.4524 179.16 30.4345 179.145 29.4406C179.099 26.3125 179.117 23.1844 179.132 20.0539C179.135 19.1561 179.27 19.0433 180.242 19.0409C183.039 19.0312 185.833 19.0312 188.629 19.0409C189.66 19.0457 189.744 19.1321 189.752 20.1188C189.762 21.8016 189.754 23.4845 189.754 25.165ZM118.981 25.2226C118.981 26.9055 118.988 28.5884 118.976 30.2713C118.971 31.1859 118.854 31.2915 117.896 31.318C117.33 31.3324 116.763 31.3372 116.2 31.3084C115.443 31.2723 115.318 31.1643 115.306 30.4609C115.285 29.2822 115.303 28.101 115.293 26.9199C115.285 25.926 115.207 25.8516 114.173 25.8324C113.764 25.8252 113.355 25.8204 112.949 25.8372C112.204 25.8684 112.047 25.9908 112.042 26.6726C112.032 27.7625 111.973 28.8573 112.113 29.9472C112.141 30.18 112.141 30.4177 112.166 30.653C112.21 31.0419 112.083 31.342 111.717 31.5532C111.049 31.9421 110.396 32.3551 109.715 32.7224C109.207 32.996 109.004 32.9168 108.796 32.3887C108.473 31.5772 108.387 30.713 108.377 29.8607C108.344 26.5862 108.351 23.3069 108.364 20.0299C108.367 19.1681 108.504 19.0625 109.406 19.0409C109.939 19.0288 110.475 19.0264 111.008 19.0409C111.92 19.0673 112.009 19.1537 112.027 20.0395C112.042 20.6613 112.019 21.2807 112.039 21.9001C112.06 22.6395 112.189 22.7571 112.994 22.7811C113.497 22.7955 114 22.8003 114.503 22.7739C115.128 22.7379 115.262 22.6083 115.285 22.0105C115.313 21.3023 115.28 20.5917 115.306 19.8835C115.331 19.1777 115.443 19.0745 116.205 19.0457C116.832 19.024 117.462 19.0241 118.089 19.0481C118.823 19.0745 118.955 19.1945 118.971 19.9075C118.996 21.0286 118.981 22.1521 118.981 23.2733C118.983 23.9214 118.981 24.572 118.981 25.2226ZM96.2515 25.1362C96.2515 23.4821 96.2439 21.8304 96.2541 20.1788C96.2617 19.1369 96.3506 19.0457 97.4199 19.0409C99.4924 19.0288 101.567 19.0312 103.64 19.0409C104.598 19.0457 104.653 19.0961 104.961 19.9771C105.067 20.2868 105.164 20.5989 105.258 20.911C105.55 21.8809 105.492 21.9553 104.377 21.9625C103.279 21.9721 102.18 21.9649 101.08 21.9673C100.859 21.9697 100.638 21.9697 100.422 21.9961C100.143 22.0297 99.9521 22.1737 99.9597 22.4594C99.9699 22.7499 100.181 22.8771 100.455 22.8963C100.798 22.9227 101.143 22.918 101.489 22.9228C101.837 22.9252 102.185 22.9228 102.497 23.0932C103.917 23.8686 105.26 24.7329 106.226 26.022C106.784 26.7711 107.079 27.5921 106.965 28.5212C106.805 29.8103 106.076 30.629 104.752 30.9843C103.869 31.2195 102.954 31.2771 102.048 31.3036C100.478 31.3492 98.9057 31.3324 97.3361 31.3156C96.3811 31.306 96.2617 31.1859 96.2566 30.2689C96.2439 28.5596 96.2541 26.8479 96.2515 25.1362ZM101.382 28.2931C101.54 28.2931 101.694 28.3003 101.852 28.2907C102.223 28.2667 102.634 28.2931 102.804 27.8826C102.954 27.5177 102.817 27.1864 102.583 26.8935C102.246 26.4662 101.852 26.0797 101.352 25.8252C100.529 25.4027 99.9369 25.7172 99.8937 26.5742C99.8861 26.6918 99.8886 26.8095 99.8886 26.9271C99.8835 28.2379 99.9547 28.3027 101.382 28.2931ZM120.324 26.7999C120.368 24.7305 120.957 22.8411 122.458 21.2663C123.794 19.8643 125.544 19.2737 127.474 19.0985C128.345 19.0168 129.232 19.0624 130.11 19.0432C130.585 19.0312 130.88 19.2353 131.002 19.6674C131.147 20.1812 131.307 20.6925 131.441 21.2063C131.495 21.4031 131.594 21.6456 131.434 21.8064C130.961 22.2794 131.088 22.8555 131.086 23.4029C131.076 25.6763 131.088 27.9498 131.078 30.2232C131.076 31.2099 130.984 31.2939 129.963 31.318C129.397 31.33 128.83 31.3372 128.267 31.3036C127.593 31.2627 127.456 31.1307 127.426 30.4825C127.39 29.7743 127.421 29.0661 127.398 28.3579C127.375 27.6065 127.248 27.4937 126.453 27.4721C125.917 27.4577 125.384 27.4528 124.85 27.4769C124.193 27.5057 124.02 27.7073 124.139 28.3315C124.279 29.0589 124.553 29.7503 124.894 30.4201C125.305 31.2243 125.29 31.2483 124.485 31.7669C124.043 32.0502 123.601 32.331 123.144 32.5927C122.519 32.9504 122.387 32.9288 122.021 32.3478C120.942 30.641 120.299 28.8092 120.324 26.7999ZM125.838 24.5192C127.406 24.5192 127.484 24.4424 127.403 22.966C127.398 22.8771 127.395 22.7883 127.388 22.6995C127.357 22.3034 127.121 22.2002 126.74 22.3082C126.123 22.4858 125.6 22.8099 125.203 23.2853C124.944 23.595 124.475 23.9142 124.698 24.3416C124.881 24.6873 125.386 24.4688 125.744 24.5168C125.775 24.5216 125.808 24.5192 125.838 24.5192ZM220.631 23.703C219.438 24.7977 218.315 25.8204 217.202 26.8527C216.936 27.0999 216.933 27.4384 216.931 27.7673C216.931 28.6508 216.941 29.5366 216.923 30.4225C216.903 31.1739 216.791 31.2795 215.976 31.3107C215.379 31.3348 214.779 31.3372 214.183 31.3084C213.459 31.2723 213.342 31.1427 213.286 30.4393C213.273 30.2641 213.276 30.0864 213.276 29.9088C213.273 26.7495 213.273 23.5901 213.276 20.4308C213.276 20.2244 213.271 20.0155 213.291 19.8115C213.357 19.1777 213.471 19.0697 214.183 19.0457C214.812 19.024 215.442 19.0241 216.07 19.0481C216.773 19.0769 216.89 19.1849 216.918 19.8379C216.943 20.4861 216.926 21.1367 216.933 21.7872C216.936 21.9577 216.898 22.1425 217.04 22.301C217.309 22.4066 217.436 22.1857 217.581 22.0561C218.498 21.2471 219.417 20.4405 220.306 19.605C220.735 19.2017 221.205 18.9976 221.817 19.0313C222.318 19.0601 222.823 19.0288 223.324 19.0384C224.378 19.0553 224.467 19.1273 224.472 20.0947C224.484 21.8953 224.477 23.6958 224.477 25.4987C224.477 27.0928 224.484 28.6868 224.474 30.2808C224.467 31.1979 224.362 31.2916 223.39 31.3156C222.826 31.3324 222.257 31.3372 221.693 31.306C221.017 31.2675 220.89 31.1355 220.835 30.4969C220.809 30.2328 220.817 29.9664 220.817 29.6999C220.817 28.077 220.819 26.4518 220.812 24.8289C220.812 24.5096 220.88 24.1783 220.631 23.703ZM83.9002 25.249C83.9002 26.9319 83.9078 28.6124 83.8976 30.2929C83.89 31.2027 83.7859 31.2939 82.8055 31.318C82.2391 31.3324 81.6727 31.3372 81.1088 31.3036C80.4383 31.2651 80.3062 31.1331 80.2605 30.4897C80.2301 30.0792 80.2554 29.6639 80.2377 29.251C80.2046 28.4947 80.0929 28.3867 79.3208 28.3123C78.9144 28.2739 78.508 28.2379 78.1042 28.1803C75.2773 27.7721 73.5172 25.6163 73.8397 22.9396C73.9845 21.756 74.4646 20.6613 74.9268 19.5618C75.0716 19.2209 75.3332 19.0505 75.7218 19.0505C76.3796 19.0481 77.0425 19.0216 77.7003 19.0553C78.3125 19.0841 78.4242 19.2329 78.2134 19.7923C77.8553 20.7381 77.5175 21.684 77.3752 22.6875C77.294 23.2637 77.3727 23.8062 77.6241 24.3248C77.8731 24.8385 78.3175 25.1506 78.8865 25.3138C79.8719 25.5947 80.2275 25.3619 80.2377 24.3872C80.2529 22.9732 80.2326 21.5568 80.2478 20.1404C80.2605 19.1369 80.3647 19.0505 81.4568 19.0384C81.9597 19.0312 82.4626 19.024 82.9655 19.0432C83.7681 19.0745 83.8849 19.1729 83.8925 19.9411C83.9103 21.7104 83.9002 23.4797 83.9002 25.249ZM85.8584 25.1362C85.8584 23.4821 85.8508 21.8304 85.8584 20.1788C85.866 19.1225 85.9371 19.0457 87.0115 19.0409C88.957 19.0288 90.9051 19.0288 92.8507 19.0409C93.7752 19.0457 93.8336 19.1033 94.0977 19.9267C94.1993 20.2364 94.2958 20.5485 94.3796 20.863C94.6413 21.8161 94.5524 21.9241 93.4653 21.9385C92.6805 21.9505 91.8957 21.9409 91.1108 21.9433C90.8924 21.9433 90.6714 21.9385 90.4505 21.9481C89.6453 21.9889 89.2491 22.6251 89.6047 23.2997C89.752 23.5806 90.0263 23.6286 90.3209 23.6286C91.1693 23.631 92.0176 23.631 92.8659 23.6358C93.1148 23.6358 93.3662 23.6406 93.6177 23.6502C93.9885 23.667 94.1333 23.8758 94.0393 24.1855C93.8564 24.8097 93.6482 25.4291 93.4272 26.0436C93.3078 26.3725 92.9903 26.4542 92.6652 26.4638C92.0074 26.4878 91.3471 26.4878 90.6892 26.5022C89.6758 26.5262 89.4599 26.7495 89.5336 27.6689C89.5793 28.2403 89.7088 28.3819 90.354 28.3963C91.4207 28.4203 92.49 28.4035 93.5567 28.4083C93.8387 28.4083 94.1231 28.4131 94.405 28.4251C94.7936 28.4419 95.0019 28.6172 94.8825 28.9965C94.687 29.6183 94.4812 30.2377 94.2603 30.8522C94.1282 31.2195 93.7879 31.2988 93.4272 31.306C92.8938 31.3204 92.3579 31.3228 91.8245 31.3228C90.3184 31.3252 88.8097 31.3276 87.3036 31.3228C85.8914 31.318 85.8609 31.2868 85.8584 30.0024C85.8533 28.3795 85.8559 26.7567 85.8584 25.1362ZM68.6787 24.6945C69.1613 23.206 69.5956 21.8545 70.0376 20.5029C70.5633 18.8968 70.4109 19.0481 72.1634 19.036C72.5724 19.0336 72.9813 19.0385 73.3902 19.0505C73.7915 19.0649 73.9617 19.2569 73.8474 19.6338C73.7864 19.8307 73.7102 20.0251 73.634 20.2196C72.4504 23.2373 71.2694 26.2573 70.0757 29.2726C69.7683 30.0456 69.4509 30.8186 68.9632 31.5124C68.379 32.3478 67.5714 32.8496 66.5021 32.984C66.0373 33.0441 65.7071 32.9456 65.5293 32.5039C65.2956 31.9253 65.0315 31.3564 64.8004 30.7754C64.6784 30.4681 64.7877 30.2569 65.161 30.2112C65.288 30.1968 65.415 30.1944 65.5369 30.1704C66.657 29.94 67.0126 29.371 66.6062 28.3747C65.5039 25.6739 64.3838 22.9804 63.2739 20.2844C62.7964 19.1201 62.8523 19.0432 64.1806 19.036C64.6505 19.0336 65.1229 19.0601 65.5928 19.0336C66.2303 18.9976 66.5656 19.2689 66.7586 19.8283C67.2132 21.1486 67.711 22.4546 68.1936 23.7654C68.2952 24.0367 68.3435 24.332 68.6787 24.6945ZM202.299 26.5886C202.299 25.4963 202.306 24.404 202.293 23.3117C202.288 22.7907 202.41 22.2386 201.913 21.8208C201.791 21.72 201.819 21.5424 201.859 21.3983C202.032 20.7717 202.207 20.1428 202.398 19.5186C202.497 19.1945 202.763 19.0529 203.114 19.0505C204.998 19.0433 206.893 18.9112 208.768 19.1057C211.325 19.3697 212.595 21.1871 211.991 23.5421C211.765 24.4304 211.269 25.1698 210.601 25.8204C209.56 26.8407 208.293 27.5537 206.924 28.089C206.205 28.3699 205.865 28.7612 205.948 29.4934C205.989 29.8439 205.966 30.204 205.938 30.5569C205.89 31.1427 205.765 31.2723 205.125 31.3036C204.468 31.3372 203.805 31.3372 203.144 31.306C202.466 31.2723 202.324 31.1379 202.311 30.4873C202.288 29.1885 202.304 27.8874 202.304 26.5886H202.299ZM205.956 23.4509H205.981C205.981 23.8326 205.966 24.2167 205.986 24.596C206.002 24.8553 206.195 24.985 206.441 24.8673C207.208 24.5072 207.912 24.0583 208.26 23.2853C208.478 22.7955 208.333 22.3082 207.922 22.1233C207.394 21.8881 206.807 21.8641 206.284 22.0729C205.819 22.2554 205.994 22.7331 205.959 23.1004C205.946 23.2156 205.956 23.3333 205.956 23.4509ZM191.712 25.117C191.712 23.4341 191.705 21.7536 191.717 20.0731C191.723 19.1417 191.814 19.048 192.789 19.0432C194.801 19.0288 196.81 19.0288 198.819 19.0432C199.627 19.048 199.71 19.1225 199.947 19.8427C200.086 20.2628 200.216 20.6901 200.315 21.1222C200.462 21.7776 200.363 21.9049 199.627 21.9289C198.842 21.9577 198.054 21.9409 197.27 21.9433C196.957 21.9433 196.642 21.9361 196.33 21.9481C195.512 21.9841 195.121 22.5891 195.461 23.2877C195.598 23.5733 195.868 23.6262 196.165 23.6286C196.919 23.631 197.673 23.631 198.425 23.6334C198.707 23.6358 198.992 23.6238 199.274 23.6406C199.931 23.6814 200.028 23.799 199.855 24.4232C199.728 24.8793 199.548 25.3234 199.423 25.7796C199.294 26.2501 198.982 26.4686 198.479 26.4758C197.788 26.4854 197.097 26.4902 196.406 26.507C196.063 26.5166 195.662 26.483 195.504 26.8479C195.324 27.2632 195.314 27.7169 195.517 28.1347C195.654 28.4155 195.979 28.4035 196.264 28.4035C197.364 28.4083 198.461 28.4035 199.561 28.4083C200.937 28.4155 200.98 28.4659 200.551 29.7143C199.975 31.3828 200.208 31.3204 198.225 31.3228C196.622 31.3276 195.022 31.3252 193.419 31.3228C193.168 31.3228 192.916 31.33 192.667 31.3156C191.85 31.2699 191.74 31.1763 191.72 30.4249C191.7 29.7479 191.712 29.0685 191.712 28.3891C191.712 27.2992 191.712 26.2069 191.712 25.117Z" fill="#E13B22"/>
</svg>
