<svg width="37" height="38" viewBox="0 0 37 38" fill="none" xmlns="http://www.w3.org/2000/svg">
<path d="M28.0898 14.0549C34.5178 11.0784 37.1229 9.39516 36.2634 8.78216C35.8138 8.47033 35.5843 8.45134 34.5971 8.63332C32.6825 9.01328 25.1305 12.6028 24.9657 13.2178C24.7372 14.0708 26.8013 14.6451 28.0898 14.0549Z" fill="#323231"/>
<path d="M14.2575 10.5186C15.0311 10.2581 15.0126 10.1681 13.2044 6.72826C12.25 4.8778 11.3856 3.64689 10.6654 3.07122C9.68395 2.27671 8.96594 2.80725 9.25488 3.47999C11.7094 9.28302 12.9213 10.9685 14.2575 10.5186Z" fill="#323231"/>
<path d="M30.2345 21.7309C29.1164 21.0486 23.4344 17.4212 23.0246 17.12C22.827 16.982 22.7741 16.5426 22.8752 15.8469C23.5687 10.6322 23.9211 5.17731 23.6175 4.4794C23.3962 3.95234 22.2049 3.78195 21.7536 4.19257C21.3024 4.60319 18.485 9.22757 16.6315 12.643L15.4168 14.8689C3.15749 15.4111 2.56186 15.1665 7.25589 18.1039L11.4009 20.7029C13.7552 22.1842 13.8095 22.2197 13.7787 22.8918C13.7331 23.8577 13.8359 28.648 13.7646 30.9039C13.5967 35.749 16.5007 33.508 20.6661 25.5242L21.6247 23.6975C21.8741 23.7218 23.4235 23.9881 30.3276 24.3285C31.9104 24.3911 31.8872 22.7265 30.2345 21.7309Z" fill="#323231"/>
<path d="M21.4569 21.6964C22.3125 21.9257 26.9521 22.042 27.1485 21.9458C27.3701 21.8351 23.6563 19.4578 21.9664 18.601C20.6134 17.9196 20.6599 18.1448 21.003 13.2828C21.3272 8.96859 21.327 8.96854 20.7667 9.94526L17.5987 15.5599C17.2801 16.1124 16.7161 16.3865 16.1789 16.2425C15.6217 16.0932 10.3213 16.3739 9.22674 16.3995C8.34721 16.419 8.63765 16.6882 10.6683 17.7851C14.7099 19.9736 15.7179 20.669 15.6885 21.2564C15.663 21.9087 16.056 24.8203 15.9927 27.2059C15.9521 29.1085 16.0274 29.0651 17.6274 26.1983C20.0505 21.8511 20.4222 21.4192 21.4569 21.6964Z" fill="white"/>
<path d="M22.113 26.2521C21.996 26.6886 25.83 33.3927 26.4866 33.8875C27.8686 34.9382 28.4898 34.2115 27.6123 32.5518C25.2619 28.0312 22.485 24.8635 22.113 26.2521Z" fill="#323231"/>
<path d="M6.45095 23.4163C1.93941 24.9714 1.34216 25.4492 3.25243 25.9611C4.18767 26.2117 11.1924 23.7088 11.1569 23.1252C11.1015 22.2174 9.65139 22.2965 6.45095 23.4163Z" fill="#323231"/>
</svg>
