<svg width="24" height="24" viewBox="0 0 24 24" fill="none" xmlns="http://www.w3.org/2000/svg">
<g clip-path="url(#clip0_29_180)">
<path d="M1.22043 12.5088H2.21329L7.13703 19.5154C7.27263 19.7081 7.46111 19.8575 7.67972 19.9454C7.89833 20.0334 8.13773 20.0561 8.369 20.011C8.60037 19.9659 8.81372 19.8547 8.98327 19.6909C9.15282 19.5272 9.27133 19.3178 9.32446 19.0881L12.2581 6.40702H22.7795C22.9415 6.4097 23.1024 6.38011 23.2528 6.31998C23.4032 6.25985 23.5402 6.17038 23.6557 6.05678C23.7711 5.94319 23.8629 5.80774 23.9255 5.65834C23.9881 5.50893 24.0203 5.34856 24.0203 5.18656C24.0203 5.02457 23.9881 4.8642 23.9255 4.71479C23.8629 4.56539 23.7711 4.42994 23.6557 4.31635C23.5402 4.20275 23.4032 4.11328 23.2528 4.05315C23.1024 3.99302 22.9415 3.96343 22.7795 3.96611H11.288C11.0121 3.96614 10.7444 4.05962 10.5284 4.23131C10.3125 4.403 10.1611 4.64278 10.0989 4.91155L7.56266 15.8754L3.84585 10.5865C3.73323 10.4264 3.58372 10.2957 3.40996 10.2054C3.2362 10.1152 3.04328 10.0681 2.84748 10.0681H1.22043C0.90105 10.0745 0.596933 10.2059 0.37335 10.4341C0.149766 10.6623 0.0245361 10.969 0.0245361 11.2884C0.0245361 11.6079 0.149766 11.9146 0.37335 12.1427C0.596933 12.3709 0.90105 12.5023 1.22043 12.5088Z" fill="white"/>
<path d="M13.6467 17.6964C13.6467 18.2957 14.1353 18.7365 14.7653 18.7365C15.191 18.7365 15.5219 18.4687 15.8054 18.1219L17.5075 15.8842L19.2093 18.1219C19.5246 18.5159 19.8552 18.7365 20.3278 18.7365C20.9272 18.7365 21.431 18.311 21.431 17.6336C21.431 17.3185 21.3048 17.0348 21.0368 16.7192L18.9251 14.2927L20.9741 11.897C21.1635 11.6606 21.3048 11.4084 21.3048 11.0773C21.3048 10.478 20.8162 10.0369 20.1858 10.0369C19.7602 10.0369 19.4296 10.3049 19.1457 10.652L17.5539 12.7318L15.994 10.652C15.6784 10.2578 15.3479 10.0369 14.8754 10.0369C14.2762 10.0369 13.7723 10.4628 13.7723 11.1404C13.7723 11.4552 13.8985 11.7392 14.166 12.054L16.1359 14.3236L13.9768 16.8765C13.7728 17.1131 13.6467 17.3653 13.6467 17.6964Z" fill="white"/>
</g>
<defs>
<clipPath id="clip0_29_180">
<rect width="24" height="24" fill="white"/>
</clipPath>
</defs>
</svg>
