<svg width="24" height="24" viewBox="0 0 24 24" fill="none" xmlns="http://www.w3.org/2000/svg">
<g clip-path="url(#clip0_29_196)">
<path d="M20.7977 12C22.5828 10.2506 23.5258 8.43305 22.8332 6.94833C22.006 5.17505 19.3183 4.88109 16.1551 5.47805C15.3593 2.3588 13.957 0 12 0C10.0431 0 8.64085 2.3588 7.84501 5.47781C4.68169 4.88086 1.99393 5.175 1.16677 6.94833C0.474242 8.43305 1.41718 10.2506 3.20227 12C1.41718 13.7494 0.474242 15.567 1.16682 17.0517C2.15176 19.1636 5.55493 18.9493 7.84393 18.5179C8.63949 21.6392 10.0421 24 12 24C13.9579 24 15.3605 21.6392 16.1561 18.5179C18.4585 18.9517 21.8505 19.1575 22.8332 17.0516C23.5258 15.5669 22.5828 13.7494 20.7977 12ZM2.44121 7.54298C3.04337 6.25013 6.12629 6.59667 7.54177 6.85617C7.41413 7.53905 7.31279 8.24592 7.23783 8.96648C6.15465 9.61561 5.14384 10.3213 4.25813 11.0541C3.42966 10.2467 1.95263 8.58952 2.44121 7.54298ZM7.10973 13.2964C6.4629 12.875 5.85076 12.4435 5.30504 12C5.85076 11.5565 6.4629 11.1249 7.10973 10.7036C7.06815 11.6518 7.0673 12.329 7.10973 13.2964ZM2.44121 16.457C1.95235 15.4099 3.4313 13.7516 4.25818 12.9459C5.14388 13.6787 6.15469 14.3844 7.23788 15.0335C7.31288 15.7548 7.41437 16.4624 7.54215 17.146C4.8376 17.6427 2.86674 17.3719 2.44121 16.457ZM15.2421 8.11613C14.5148 7.73728 14.1931 7.59366 13.951 7.48205C14.3374 7.36181 14.7158 7.25339 15.0844 7.1587C15.1437 7.47671 15.1962 7.79592 15.2421 8.11613ZM12 1.40625C13.0083 1.40625 14.0866 3.1245 14.7797 5.78517C13.8648 6.02016 12.9291 6.31631 12.0003 6.66586C11.0713 6.31617 10.1356 6.01988 9.22041 5.78489C9.91337 3.1245 10.9917 1.40625 12 1.40625ZM8.91615 7.1558C9.28576 7.25081 9.66544 7.35975 10.0529 7.48031C9.76862 7.61137 9.4688 7.74586 8.75794 8.11617C8.80396 7.79498 8.8567 7.47478 8.91615 7.1558ZM8.75794 15.8838C9.47888 16.2594 9.7689 16.3884 10.0496 16.5178C9.66301 16.6381 9.28458 16.7466 8.91568 16.8414C8.85636 16.5234 8.80377 16.2041 8.75794 15.8838ZM12 22.5938C10.9915 22.5938 9.91294 20.8749 9.21994 18.2134C10.1356 17.9783 11.0705 17.6807 12 17.331C12.9295 17.6807 13.8644 17.9783 14.7801 18.2134C14.0871 20.8749 13.0085 22.5938 12 22.5938ZM15.0844 16.8412C14.7156 16.7465 14.3371 16.638 13.9505 16.5177C14.2514 16.3793 14.5185 16.2607 15.2421 15.8838C15.1962 16.204 15.1436 16.5232 15.0844 16.8412ZM15.4326 14.1876C14.208 14.8748 13.1415 15.3677 12 15.8236C10.8436 15.3617 9.79205 14.8748 8.56744 14.1876C8.45907 12.7817 8.45424 11.2811 8.56744 9.81244C9.80185 9.11963 10.8676 8.6288 12 8.1765C13.1542 8.63742 14.2055 9.12375 15.4326 9.81244C15.5409 11.2183 15.5458 12.7189 15.4326 14.1876ZM21.5588 7.54298C22.0477 8.59013 20.5687 10.2484 19.7418 11.0541C18.8562 10.3213 17.8453 9.61561 16.7621 8.96648C16.6871 8.24527 16.5857 7.53773 16.458 6.8543C19.162 6.35794 21.1325 6.62897 21.5588 7.54298ZM16.8903 10.7036C17.5371 11.125 18.1493 11.5565 18.695 12C18.1493 12.4435 17.5371 12.8751 16.8903 13.2964C16.9319 12.3482 16.9327 11.671 16.8903 10.7036ZM21.5588 16.457C21.1333 17.3707 19.1626 17.6419 16.458 17.1456C16.5857 16.4621 16.6871 15.7547 16.7621 15.0335C17.8453 14.3844 18.8561 13.6787 19.7418 12.9459C20.5704 13.7533 22.0474 15.4105 21.5588 16.457Z" fill="white"/>
<path d="M12 9.89062C10.8368 9.89062 9.89062 10.8368 9.89062 12C9.89062 13.1632 10.8368 14.1094 12 14.1094C13.1632 14.1094 14.1094 13.1632 14.1094 12C14.1094 10.8368 13.1632 9.89062 12 9.89062Z" fill="white"/>
</g>
<defs>
<clipPath id="clip0_29_196">
<rect width="24" height="24" fill="white"/>
</clipPath>
</defs>
</svg>
