<svg width="24" height="24" viewBox="0 0 24 24" fill="none" xmlns="http://www.w3.org/2000/svg">
<path d="M5.37732 7.07816H5.96644L5.67188 6.47595L5.37732 7.07816Z" fill="white"/>
<path d="M5.67188 1.45312C2.5703 1.45312 0 3.97655 0 7.07812C0 10.1797 2.5703 12.7031 5.67188 12.7031C6.59475 12.7031 7.51481 12.4628 8.3498 12.0068L10.9755 12.3818L10.6006 9.756C11.0565 8.92106 11.2969 8.001 11.2969 7.07812C11.2969 3.97655 8.77345 1.45312 5.67188 1.45312ZM7.14952 9.4965L6.65438 8.48438H4.68937L4.19423 9.4965L2.93081 8.8785L5.1878 4.26562H6.16378L8.41298 8.8785L7.14952 9.4965ZM18.3281 1.45312C15.2265 1.45312 12.7031 3.97655 12.7031 7.07812C12.7031 8.001 12.9435 8.92106 13.3994 9.75605L13.0245 12.3818L15.6503 12.0069C16.4852 12.4628 17.4053 12.7031 18.3281 12.7031C21.4297 12.7031 24 10.1797 24 7.07812C24 3.97655 21.4297 1.45312 18.3281 1.45312ZM17.625 7.78125H16.2188V6.375H17.625V7.78125ZM20.4375 7.78125H19.0312V6.375H20.4375V7.78125ZM21.4077 19.7344C18.9351 19.7344 18.1469 19.3107 17.4506 18.9365C16.893 18.6378 16.317 18.3281 15.1977 18.3281C14.0352 18.3281 12.8947 18.7422 12 19.4769C11.1053 18.7422 9.96478 18.3281 8.80228 18.3281C7.68305 18.3281 7.10695 18.6378 6.54938 18.9365C5.85314 19.3107 5.06489 19.7344 2.59228 19.7344H2.15625L0 22.5469H2.84494C4.79981 22.5469 5.93967 22.0559 6.85495 21.6611C7.53061 21.3706 8.06414 21.1406 8.80228 21.1406C10.0513 21.1406 10.8169 21.3734 11.3635 21.92L12 22.5469L12.6365 21.92C13.1831 21.3734 13.9487 21.1406 15.1977 21.1406C15.9359 21.1406 16.4694 21.3706 17.145 21.6611C18.0603 22.0559 19.2002 22.5469 21.1551 22.5469H24L21.8438 19.7344H21.4077ZM7.12345 14.3064C6.3338 14.4698 5.76872 14.7212 5.2702 14.9437C4.58081 15.2506 3.98545 15.5156 2.84494 15.5156H1.40625V16.9219H2.84494C4.28414 16.9219 5.07652 16.569 5.84212 16.2277C6.31795 16.0162 6.76702 15.8164 7.40766 15.6838C8.33395 15.4909 9.25884 15.7271 10.0162 16.3444C10.3302 16.5998 10.5743 16.9128 10.7781 17.2484C11.2005 17.3855 11.6129 17.5538 11.9999 17.7753C12.3869 17.5538 12.7993 17.3855 13.2217 17.2484C13.4255 16.9128 13.6696 16.5998 13.9836 16.3444C14.7417 15.7271 15.668 15.4943 16.5922 15.6838C17.2328 15.8163 17.6819 16.0162 18.1577 16.2283C18.9234 16.569 19.7158 16.9219 21.1551 16.9219H22.5469V15.5156H21.1551C20.0145 15.5156 19.4192 15.2506 18.7298 14.9437C18.2313 14.7212 17.6663 14.4699 16.8766 14.3064C15.5507 14.0332 14.1726 14.3778 13.0952 15.2533C12.6415 15.6231 12.2896 16.0771 12 16.5653C11.7105 16.0771 11.3586 15.6231 10.9049 15.2533C9.82814 14.3772 8.45072 14.0332 7.12345 14.3064Z" fill="white"/>
</svg>
