<svg width="24" height="24" viewBox="0 0 24 24" fill="none" xmlns="http://www.w3.org/2000/svg">
<path d="M12.7031 5.95818V3.81635C13.4449 3.53243 13.9732 2.8135 13.9732 1.97317C13.9732 0.885146 13.088 0 12 0C10.912 0 10.0268 0.885146 10.0268 1.97317C10.0268 2.81355 10.5551 3.53247 11.2969 3.81635V5.95822C11.5285 5.91277 11.764 5.88985 12 5.88978C12.236 5.88989 12.4715 5.91279 12.7031 5.95818ZM8.56546 10.829C8.47937 10.5978 8.41704 10.3584 8.37941 10.1146C8.35086 9.92889 8.33649 9.74127 8.33642 9.55337C8.33642 9.39648 8.34749 9.24221 8.36671 9.09043L5.25752 7.29459C5.27364 7.19306 5.28227 7.08909 5.28227 6.98306C5.28227 5.8955 4.40064 5.01392 3.31313 5.01392C2.22562 5.01392 1.34399 5.89555 1.34399 6.98306C1.34399 8.07056 2.22562 8.95219 3.31313 8.95219C3.7653 8.95283 4.20378 8.79713 4.55429 8.51147L8.56546 10.829ZM4.54961 15.4848C4.19984 15.2015 3.76324 15.0472 3.31313 15.0478C2.22558 15.0478 1.34399 15.9294 1.34399 17.0169C1.34399 18.1045 2.22562 18.9861 3.31313 18.9861C4.40064 18.9861 5.28227 18.1045 5.28227 17.0169C5.28227 16.9108 5.2736 16.8067 5.25742 16.705L6.94109 15.7329C6.94109 15.7329 6.94296 14.9391 6.94681 14.8547C6.95923 14.583 6.99353 14.3128 7.04937 14.0466L4.54961 15.4848ZM15.4346 10.829C15.5206 10.5978 15.583 10.3584 15.6206 10.1146C15.6492 9.92964 15.6636 9.74078 15.6636 9.55337C15.6636 9.39648 15.6525 9.24221 15.6333 9.09043L18.7425 7.29459C18.7261 7.19156 18.7178 7.08739 18.7178 6.98306C18.7178 5.8955 19.5994 5.01392 20.6869 5.01392C21.7744 5.01392 22.656 5.89555 22.656 6.98306C22.656 8.07056 21.7744 8.95219 20.6869 8.95219C20.2347 8.95283 19.7962 8.79713 19.4457 8.51147L15.4346 10.829ZM19.4505 15.4848C19.8002 15.2015 20.2368 15.0472 20.6869 15.0478C21.7745 15.0478 22.6561 15.9294 22.6561 17.0169C22.6561 18.1045 21.7744 18.9861 20.6869 18.9861C19.5994 18.9861 18.7178 18.1045 18.7178 17.0169C18.7178 16.9108 18.7265 16.8067 18.7426 16.705L17.059 15.7329C17.059 15.7329 17.0571 14.9391 17.0533 14.8547C17.0408 14.583 17.0065 14.3128 16.9507 14.0466L19.4505 15.4848ZM11.297 20.1837C10.5554 20.4677 10.0271 21.1865 10.0271 22.0268C10.0271 23.1148 10.9123 24 12.0003 24C13.0883 24 13.9735 23.1149 13.9735 22.0268C13.9735 21.1864 13.4451 20.4675 12.7033 20.1836V17.5621H11.297V20.1837ZM14.3896 12.3269C13.7476 12.8809 12.9126 13.217 12.0001 13.217C11.0875 13.217 10.2525 12.8809 9.6105 12.3269C8.83762 12.9972 8.34735 13.9851 8.34735 15.086V16.1558H15.6527V15.086C15.6527 13.9851 15.1625 12.9972 14.3896 12.3269Z" fill="white"/>
<path d="M14.0902 10.4196C14.5677 9.26793 14.0212 7.94726 12.8696 7.46976C11.7179 6.99227 10.3973 7.53877 9.91976 8.69041C9.44226 9.84205 9.98876 11.1627 11.1404 11.6402C12.292 12.1177 13.6127 11.5712 14.0902 10.4196Z" fill="white"/>
</svg>
