<svg width="100" height="99" viewBox="0 0 100 99" fill="none" xmlns="http://www.w3.org/2000/svg">
<path d="M0.5 27C0.5 12.0883 12.5883 0 27.5 0H99.5V72C99.5 86.9117 87.4117 99 72.5 99H27.5C12.5883 99 0.5 86.9117 0.5 72V27Z" fill="white"/>
<path d="M12 19.7634L24.4813 42.2233L53.7861 34.0229L56.5024 11.1733C56.5024 11.1733 49.7235 20.9649 43.8365 19.8369C38.199 18.7568 35.1353 8 35.1353 8C35.1353 8 33.7158 21.0663 27.4049 23.6815C21.6707 26.0578 12 19.7634 12 19.7634Z" stroke="#D7BBF8" stroke-width="3"/>
<path d="M55.7695 47.3013C56.5831 47.3013 57.1363 46.9108 57.6896 45.8694C59.6747 42.1594 61.3019 41.899 62.1805 45.0883C63.0592 48.2125 66.3788 48.5379 66.3788 45.5114C66.3788 42.1594 61.1066 39.4257 57.3316 40.7926C54.5328 41.834 53.2311 47.3013 55.7695 47.3013Z" fill="#323231"/>
<path d="M38.3259 48.3101C38.3259 45.4137 40.3111 44.2421 41.2548 46.5527C42.3288 49.1236 44.2163 49.8721 44.9322 47.9846C46.2665 44.535 39.107 41.1505 35.8851 43.6889C34.6159 44.6977 33.4769 47.6592 33.9325 48.8307C34.4858 50.2952 38.3259 49.8071 38.3259 48.3101Z" fill="#323231"/>
<path d="M40.5716 64.6467C49.2933 68.5194 58.1452 67.3478 63.9705 61.5551C70.0887 55.4694 67.7456 49.1234 59.8375 50.3275C59.089 50.4251 56.8761 51.2387 54.956 52.1174C51.0508 53.8748 48.6425 54.0049 43.2403 52.7032C34.3559 50.6204 32.0777 60.9042 40.5716 64.6467ZM63.0919 52.8333C64.5889 54.7209 63.9055 57.9427 61.5949 60.1231C60.0653 61.5551 60.2281 61.6852 59.1867 58.1054C58.7311 56.5108 58.2103 54.8836 58.0151 54.4605C57.4293 52.9635 62.0505 51.4991 63.0919 52.8333ZM53.3288 55.0789C55.2489 54.5582 55.2489 54.5256 56.1276 58.7237C57.1039 63.3449 57.1039 63.41 55.4441 63.9958C52.2223 65.1349 52.5802 65.0697 51.7992 55.4694L53.3288 55.0789ZM45.5509 55.4368H49.1631C49.1631 62.2385 49.2609 62.1408 49.749 64.6141L47.9917 64.2887C45.2906 63.8005 45.5509 63.6053 45.5509 55.4368ZM41.8408 54.3629C42.9798 54.6558 43.468 62.6941 42.3615 62.6941C41.3201 62.6941 38.9119 59.7326 38.5864 58.0078C38.0657 55.1765 39.3675 53.712 41.8408 54.3629Z" fill="#323231"/>
<path d="M61.7574 28.7836C56.648 26.2127 56.5179 27.189 61.3344 31.8753C76.4021 46.4874 72.3341 68.4869 54.2723 70.2768C40.246 71.6762 30.2551 63.0196 30.5155 50.0021C30.7107 39.6532 37.5123 28.8162 48.7074 27.5144C50.9529 27.2541 51.018 27.189 50.0091 26.6358C48.447 25.7571 43.891 25.9198 41.1247 26.8961C37.5124 28.1979 33.8349 30.8664 30.9711 34.3161C23.7789 42.9076 24.56 56.4132 30.2226 64.4189C37.2846 74.4098 60.9438 76.1347 69.2424 67.2503C79.6564 56.1203 75.6861 35.8131 61.7574 28.7836Z" fill="#323231"/>
</svg>
