<svg width="100" height="99" viewBox="0 0 100 99" fill="none" xmlns="http://www.w3.org/2000/svg">
<path d="M0.5 27C0.5 12.0883 12.5883 0 27.5 0H72.5C87.4117 0 99.5 12.0883 99.5 27V72C99.5 86.9117 87.4117 99 72.5 99H0.5V27Z" fill="white"/>
<path d="M26.6823 62.1802C29.8851 60.899 28.8751 59.6425 25.5491 60.7758C23.7259 61.3918 23.578 61.5396 23.9969 62.2048C24.3911 62.8454 25.007 62.8454 26.6823 62.1802Z" fill="black"/>
<path d="M25.7956 63.3382C24.4406 63.831 24.1942 64.1266 24.8101 64.5947C25.4507 65.0875 26.7564 64.915 27.9636 64.2005C29.6636 63.1658 28.0129 62.5252 25.7956 63.3382Z" fill="black"/>
<path d="M74.503 49.7382C73.2219 48.802 72.9755 48.3585 73.4929 48.0383C73.8132 47.8412 75.9074 43.505 77.361 40.0558C79.2087 35.6704 79.3566 35.7936 72.335 35.6704L67.3336 35.5718L67.8018 34.6603C71.8423 26.7271 70.364 23.1055 64.4758 26.53C62.9975 27.3923 61.199 28.4271 60.4845 28.7966C58.957 29.6343 59.0063 29.8561 59.6222 25.6924C60.1889 21.8244 59.0556 20.6417 56.4687 22.391C56.0006 22.7113 54.3498 23.9924 52.8223 25.2242C49.5702 27.8604 49.8413 27.7619 49.1514 26.4315C47.7471 23.7953 45.6529 22.8591 44.7906 24.5098C43.6819 26.6286 42.2284 34.34 42.8936 34.5618C43.682 34.8328 45.4805 31.9748 46.4907 28.8459C46.6631 28.3531 47.6731 29.4372 47.9934 30.4473C48.3876 31.7038 49.0036 31.4328 52.8717 28.3531C54.3252 27.1706 55.5818 26.2344 55.6064 26.2344C55.6557 26.2344 55.5325 27.0474 55.3354 28.0083C54.0542 34.5617 55.5324 33.798 61.2975 30.9154C66.4959 28.3039 66.0033 28.23 64.9439 31.5314L63.6135 35.7197C62.7512 38.4298 63.6134 39.5877 65.8062 38.6761C66.7916 38.2573 73.9856 38.4051 73.9856 38.8239C73.9856 38.9225 73.2959 40.2775 72.4828 41.8051C70.3394 45.7716 69.9944 46.9542 69.3292 47.8412C68.6887 48.6542 69.1814 50.3295 70.1915 50.5266C71.2509 50.7237 72.6553 52.2019 75.3161 54.7396C67.4322 57.8438 67.2597 57.4004 71.3987 63.0669C72.5567 64.6683 73.4929 65.9987 73.4437 66.048C73.3944 66.0726 71.7437 65.9988 69.7481 65.8509C64.6975 65.4814 64.2539 65.7523 65.4858 68.2653C66.2495 69.8175 66.2249 69.8175 64.3771 68.7335C60.5337 66.4422 57.5774 67.6987 61.2729 70.0639C70.1916 75.8043 71.3248 75.9522 70.1915 71.3204C69.3539 67.9697 69.3785 67.9204 70.364 68.0436C71.7191 68.2161 75.5131 68.3146 76.5725 68.6842C79.8246 69.8422 79.2088 67.4277 74.8234 61.9829C73.5669 60.4061 72.532 59.0264 72.532 58.9032C72.532 58.6076 77.8784 56.1932 78.987 55.9961C79.8493 55.8483 79.9232 55.2077 79.3073 54.2468C78.5681 53.0889 76.9175 51.4874 74.503 49.7382Z" fill="#FEDA79"/>
<path d="M45.2339 67.3288C50.5063 67.5752 55.0148 69.4476 60.2133 66.3187C66.6436 62.4753 61.5683 44.5641 57.4785 38.8236C54.7685 35.0295 50.999 32.9846 46.1948 35.5223C43.2876 37.0498 42.6963 37.5425 39.0747 41.5584C37.3501 43.4554 35.379 45.4017 34.6892 45.8452C33.9993 46.3133 33.1618 46.88 32.8168 47.1017C24.5634 52.7929 22.7156 54.2465 22.0504 55.6262C20.2272 59.3957 20.9909 64.2492 23.8488 66.91C24.6126 67.6244 30.8211 71.7881 31.1168 71.7881C31.2153 71.7881 31.7082 72.3548 32.2009 73.0447C35.8719 78.1692 40.0601 79.4257 43.9774 76.617C46.7861 74.6214 46.6629 73.02 43.4847 69.965L42.4992 69.0288L43.5093 67.2057L45.2339 67.3288ZM23.1837 59.1739C24.0953 56.0696 28.6532 51.6103 28.259 54.1972C27.7662 57.4247 30.5994 63.2883 33.7037 65.5303L34.9849 66.4665L34.0732 67.0825C29.4415 70.3346 21.6069 64.6187 23.1837 59.1739ZM42.647 73.6359C41.9326 74.1779 41.292 73.1432 41.292 73.1432C40.2326 72.0838 39.247 72.5026 39.9862 73.5867C40.5035 74.3258 40.7746 74.3012 40.0355 75.0896C38.9761 76.1982 38.508 76.0011 35.9704 73.5867C31.9791 69.7679 31.7328 69.2012 33.6791 68.4129C34.64 68.0187 34.6646 67.8215 35.2559 68.8809C36.3153 70.778 37.5964 70.4578 40.1587 70.1621C40.5036 70.1128 40.8239 70.2606 41.0456 70.507L41.7354 71.3447C42.2774 71.862 43.1891 73.2171 42.647 73.6359ZM40.134 66.8854C41.0209 67.5506 39.2717 68.8809 38.5079 68.8809C37.9906 68.8809 36.7588 67.994 36.7588 67.6245C36.7588 67.1317 39.5181 66.4173 40.134 66.8854ZM34.2951 63.1405C28.7271 58.1146 28.6285 52.3987 34.0487 49.0974C37.3501 47.0771 40.2326 44.6873 42.3022 42.2482C43.0659 41.3613 43.9775 39.957 44.4948 39.5381C45.3079 38.8483 45.4311 39.4642 45.0122 40.1541C39.8877 48.309 42.6963 58.0406 46.3673 62.0565C51.1715 67.3042 59.1293 65.3578 59.1293 59.4696C59.1293 58.1392 58.5626 57.8682 58.1438 59.0507C55.4337 66.9593 50.5309 61.8348 50.5063 61.8348C51.1222 59.716 51.4178 57.9667 54.3989 56.5378C59.6959 54.0248 55.138 45.9931 49.4715 47.8408C47.1556 48.6046 44.5687 47.3974 44.347 47.151C44.347 47.1264 44.8643 40.7946 49.1019 38.2324C50.3091 37.4932 49.3976 36.5078 47.9932 37.1976C47.057 37.6657 46.6629 37.099 47.0324 36.6802C48.0425 35.5469 49.7425 35.2266 50.8512 35.6947C60.5828 39.7845 66.8407 66.4665 55.0148 66.2448C53.438 66.2201 50.1121 65.7274 45.2339 65.1608C40.6761 64.668 37.695 66.2202 34.2951 63.1405ZM44.8891 50.8466C44.8891 50.5263 45.1846 50.3785 46.318 50.2553C47.1063 50.1567 47.8948 49.9843 48.0919 49.8857C49.0281 49.3437 49.2498 49.6147 49.3976 51.4132C49.5701 53.4335 50.2846 55.1088 51.1715 55.5769C51.5164 55.7493 51.7875 55.9957 51.7875 56.0943C51.7875 56.2914 48.1165 59.0015 47.8208 59.0015C47.3527 59.0261 44.8891 52.1523 44.8891 50.8466ZM52.8468 49.4915C53.2164 50.0582 54.0048 52.9407 54.0048 53.7291C54.0048 54.4189 53.4628 53.7784 52.7483 52.2509C51.7135 50.1074 51.812 47.9147 52.8468 49.4915Z" fill="black"/>
</svg>
