<svg width="100" height="99" viewBox="0 0 100 99" fill="none" xmlns="http://www.w3.org/2000/svg">
<path d="M0.5 27C0.5 12.0883 12.5883 0 27.5 0H99.5V72C99.5 86.9117 87.4117 99 72.5 99H27.5C12.5883 99 0.5 86.9117 0.5 72V27Z" fill="white"/>
<path fill-rule="evenodd" clip-rule="evenodd" d="M43.0416 27.3255C37.9485 27.7362 36.8806 28.188 38.2771 29.338C38.6467 29.6666 42.1791 29.7899 49.8597 29.7077C63.6192 29.5845 65.796 29.8309 67.48 31.6381C69.2461 33.5275 72.6141 34.1025 72.6141 32.5007C72.6141 31.7614 69.6979 29.0916 68.3015 28.5577C65.5085 27.4898 50.1472 26.7504 43.0416 27.3255ZM29.1178 30.4881C21.3961 38.2098 25.9141 71.7254 34.4162 69.836C36.0181 69.4664 35.977 68.8914 34.252 68.1931C30.9251 66.7966 30.0625 64.0858 30.925 57.8838C31.4179 54.3515 31.5 51.3942 31.2946 43.5082C31.0071 32.706 31.2947 31.1863 33.6359 30.4059C34.9913 29.9952 34.252 29.2148 32.4037 29.0505C30.884 28.9273 30.5143 29.0916 29.1178 30.4881ZM69.0407 36.0329C67.8496 39.4831 67.9319 41.4546 67.9319 60.9232C67.8086 61.2929 69.0407 65.6055 63.7012 66.7556C61.6065 67.2074 57.8688 67.3306 49.9006 67.4127C36.5519 67.6181 35.8947 67.7002 37.3734 69.4253C39.7145 72.2594 64.0298 72.8755 69.205 70.2468C72.4908 68.5628 73.8874 61.7857 73.8874 47.3691C73.8053 38.7438 70.6836 31.2685 69.0407 36.0329Z" fill="#323231"/>
<path d="M60.4974 39.6474C57.0062 39.6474 55.6508 37.1009 58.0741 35.1705C60.251 33.4454 64.3993 34.2258 64.3993 36.3205C64.3993 38.4563 63.0029 39.6474 60.4974 39.6474Z" fill="#81DDFF"/>
<path d="M52.1595 59.4035C40.4537 61.2929 33.8821 49.9567 40.7824 43.5083C45.054 39.5653 48.545 40.3046 50.1058 40.9618C51.913 41.7011 50.8042 42.5225 48.997 42.5225C40.9877 42.5225 39.3447 54.1051 46.6557 56.4463C53.8024 58.7464 60.2099 49.0531 54.2953 44.4119C53.1453 43.5083 53.3507 42.8922 54.7883 42.8922C62.0582 42.8922 59.5115 58.2124 52.1595 59.4035Z" fill="#81DDFF"/>
</svg>
