<svg width="100" height="99" viewBox="0 0 100 99" fill="none" xmlns="http://www.w3.org/2000/svg">
<path d="M0.5 0H72.5C87.4117 0 99.5 12.0883 99.5 27V72C99.5 86.9117 87.4117 99 72.5 99H27.5C12.5883 99 0.5 86.9117 0.5 72V0Z" fill="white"/>
<path d="M62.4924 31.791C63.5242 30.5765 64.8897 29.2709 65.4966 28.9065C69.0471 26.7204 70.443 28.7851 67.6512 31.9428C65.527 34.3414 64.8595 35.2523 64.2526 36.0417C64.2526 36.0417 62.3951 38.3593 61.8987 38.8206C61.4024 39.2819 60.7267 40.0018 59.4275 41.507C58.335 42.7823 51.4704 50.9552 51.4704 50.9552L48.535 54.4333C48.535 54.4333 42.6922 61.1091 39.1109 65.7176C38.2336 66.8466 36.7897 68.5603 36.7897 68.5603L35.7882 69.5926C32.3591 73.145 29.3549 71.9305 32.0254 68.1048L33.4213 66.1313C33.4213 66.1313 35.4513 63.2644 36.0983 62.5487C36.7453 61.833 37.9557 60.3985 40.8864 56.8402L45.5292 51.1928L48.2299 47.944C48.4424 47.9743 57.9407 37.0134 58.0317 36.8312C58.0317 36.8312 59.2254 35.3124 60.1993 34.2605C61.0284 33.3651 61.1269 33.3698 62.4924 31.791Z" fill="#EDD0BE"/>
<path fill-rule="evenodd" clip-rule="evenodd" d="M34.7516 47.2628C26.1389 45.6776 25.6105 31.5172 34.0648 28.5584C36.0726 27.8712 38.0804 27.8185 38.9787 28.3996C39.824 28.928 39.3487 30.0374 38.2919 30.0374C33.7479 30.0374 31.9512 39.8657 36.0195 42.4019C41.8318 45.9949 47.4326 38.2275 43.1528 32.6267C40.775 29.5094 44.1042 27.6601 46.9573 30.5131C55.0416 38.5974 47.01 49.5879 34.7516 47.2628ZM58.4308 52.9948C53.8868 54.1047 50.2938 58.7545 50.2938 63.5626C50.2411 73.8132 68.576 74.9226 72.75 64.8836C74.2825 61.2376 71.6405 55.7425 68.7871 56.4825C67.5719 56.7993 67.5188 56.9578 68.3114 60.0754C69.6854 65.5178 63.6089 71.0128 59.2234 68.4239C51.879 64.091 57.0044 52.0965 64.8241 55.3726C66.7793 56.2179 69.3155 56.0067 69.3155 55.0557C69.3155 53.259 62.7637 51.9911 58.4308 52.9948Z" fill="#323231"/>
</svg>
