<svg width="20" height="21" viewBox="0 0 20 21" fill="none" xmlns="http://www.w3.org/2000/svg">
<path d="M18.1156 14.1781C17.9763 15.2367 17.4564 16.2084 16.6531 16.9117C15.8497 17.6151 14.8177 18.0019 13.75 18C7.54688 18 2.50001 12.9531 2.50001 6.74996C2.49809 5.68222 2.88492 4.65029 3.58824 3.84691C4.29155 3.04353 5.26326 2.52364 6.32188 2.38434C6.58958 2.35165 6.86067 2.40642 7.09468 2.54046C7.3287 2.67451 7.51309 2.88064 7.62032 3.12809L9.27032 6.81168V6.82106C9.35242 7.01047 9.38633 7.21728 9.36901 7.42299C9.3517 7.62871 9.2837 7.82693 9.1711 7.99996C9.15704 8.02106 9.14219 8.04059 9.12657 8.06012L7.50001 9.98825C8.08516 11.1773 9.32891 12.4101 10.5336 12.9968L12.4352 11.3789C12.4538 11.3632 12.4734 11.3486 12.4938 11.3351C12.6666 11.2198 12.8655 11.1494 13.0725 11.1303C13.2794 11.1112 13.4878 11.144 13.6789 11.2257L13.6891 11.2304L17.3695 12.8797C17.6174 12.9865 17.8241 13.1707 17.9585 13.4048C18.093 13.6388 18.1481 13.9101 18.1156 14.1781Z" fill="#323231" fill-opacity="0.5"/>
</svg>
