<svg width="28" height="28" viewBox="0 0 28 28" fill="none" xmlns="http://www.w3.org/2000/svg">
<g clip-path="url(#clip0_29_520)">
<path d="M0 4.9C0 2.19381 2.1938 0 4.9 0H23.1C25.8062 0 28 2.1938 28 4.9V23.1C28 25.8062 25.8062 28 23.1 28H4.9C2.19381 28 0 25.8062 0 23.1V4.9Z" fill="#0F9AEF"/>
<path fill-rule="evenodd" clip-rule="evenodd" d="M23.9033 9.625C20.8644 9.625 18.0336 10.5063 15.646 12.0219C14.2322 12.9193 12.9741 14.0384 11.9228 15.3331C10.6416 14.3792 9.16377 13.675 7.5622 13.2869C6.64436 13.0644 5.68656 12.9436 4.70022 12.9436C4.29515 12.9436 3.89488 12.9635 3.5 13.0025C4.94434 13.1445 6.31244 13.543 7.5622 14.1471C8.84636 14.7681 10.0035 15.6082 10.9852 16.62C11.5082 17.159 11.9807 17.7465 12.3964 18.375C12.6885 17.7668 13.0183 17.1804 13.3848 16.6197C14.5197 14.8829 15.9944 13.388 17.7176 12.2322C19.8599 10.7953 22.3824 9.88016 25.1033 9.67092C24.7074 9.64056 24.3071 9.625 23.9033 9.625Z" fill="white"/>
</g>
<defs>
<clipPath id="clip0_29_520">
<rect width="28" height="28" rx="10" fill="white"/>
</clipPath>
</defs>
</svg>
