<svg width="33" height="32" viewBox="0 0 33 32" fill="none" xmlns="http://www.w3.org/2000/svg">
<path d="M3.32674 29.3709C3.17591 29.2873 3.06261 29.0969 3.06006 28.9228C3.05904 28.8528 3.53648 27.555 4.12104 26.0388L5.18388 23.282L5.01208 22.9859C4.69604 22.4412 4.06611 21.1186 3.86967 20.5873C3.6195 19.9106 3.30549 18.6573 3.18484 17.8539C3.06772 17.0741 3.04951 15.0543 3.15308 14.3321C3.59939 11.2201 4.88714 8.59191 7.00216 6.47641C9.11499 4.36311 11.7766 3.05482 14.8299 2.62874C15.4861 2.53717 17.537 2.53717 18.1932 2.62874C22.125 3.17743 25.4685 5.23443 27.6469 8.44499C28.8012 10.1461 29.5045 11.9731 29.8426 14.1482C29.9604 14.9063 29.9748 16.974 29.8673 17.6962C29.4103 20.7668 28.0825 23.4538 25.9985 25.5257C22.7488 28.7565 18.1245 30.0993 13.5949 29.1274C12.4472 28.8812 10.7254 28.1978 9.65348 27.563L9.39072 27.4074L6.55291 28.4235C4.99211 28.9823 3.65598 29.4398 3.58372 29.4401C3.51146 29.4403 3.39582 29.4092 3.32674 29.3709Z" fill="#25D366"/>
<path d="M21.9986 21.4778C21.6011 21.8707 21.1943 22.1215 20.6493 22.3095C20.1396 22.4853 19.2287 22.532 18.6876 22.4101C17.4265 22.1259 15.4953 21.1245 13.843 19.8977C12.2816 18.7385 10.9373 17.0538 9.81818 14.8536C8.94974 13.1463 8.7193 12.0573 8.9968 10.972C9.3019 9.77885 10.2428 8.79377 11.4032 8.45264C11.614 8.39069 11.9267 8.36523 12.477 8.36523C13.1845 8.36523 13.2665 8.3755 13.4006 8.48101C13.4937 8.55424 13.7928 9.0824 14.2147 9.91831L14.8816 11.2398L14.8797 11.7052C14.878 12.1213 14.8574 12.2142 14.685 12.5814C14.579 12.8073 14.3292 13.194 14.1301 13.4408L13.768 13.8894L14.0249 14.4017C14.6927 15.7336 15.6779 16.7069 17.0413 17.3817L17.5029 17.6102L17.8166 17.327C18.4788 16.7292 19.1381 16.4419 19.7551 16.4822C20.1144 16.5056 20.2202 16.5483 21.4521 17.1661C22.1747 17.5285 22.8151 17.8797 22.8754 17.9465C22.972 18.0536 22.9869 18.1595 23.0024 18.8486C23.0188 19.5732 23.0096 19.6603 22.8752 20.0608C22.6859 20.625 22.4096 21.0715 21.9986 21.4778Z" fill="white"/>
</svg>
