<svg width="24" height="24" viewBox="0 0 24 24" fill="none" xmlns="http://www.w3.org/2000/svg">
<g clip-path="url(#clip0_29_707)">
<path d="M0.23811 23.9383C0.103435 23.8636 0.00227693 23.6936 1.47015e-06 23.5382C-0.000913498 23.4757 0.425373 22.3169 0.947304 20.9632L1.89627 18.5018L1.74287 18.2374C1.4607 17.751 0.89826 16.5701 0.722866 16.0957C0.499497 15.4915 0.219131 14.3725 0.111413 13.6552C0.00684344 12.9589 -0.00942146 11.1556 0.0830519 10.5108C0.481544 7.73221 1.63132 5.38558 3.51974 3.49674C5.40619 1.60986 7.78259 0.441754 10.5087 0.0613207C11.0946 -0.0204402 12.9258 -0.0204402 13.5117 0.0613207C17.0223 0.551221 20.0075 2.38783 21.9525 5.2544C22.9831 6.77328 23.6111 8.40448 23.9129 10.3465C24.0181 11.0234 24.031 12.8696 23.935 13.5144C23.527 16.256 22.3415 18.6551 20.4808 20.505C17.5792 23.3897 13.4504 24.5886 9.40609 23.7209C8.38141 23.501 6.84403 22.8908 5.88698 22.3241L5.65237 22.1852L3.11862 23.0924C1.72505 23.5913 0.53207 23.9998 0.467553 24C0.403036 24.0002 0.299787 23.9725 0.23811 23.9383Z" fill="#323231" fill-opacity="0.3"/>
<path d="M17.1948 17.1749C16.8541 17.5117 16.5053 17.7266 16.0382 17.8878C15.6014 18.0384 14.8206 18.0785 14.3568 17.974C13.2758 17.7304 11.6205 16.872 10.2042 15.8205C8.86589 14.8269 7.71368 13.3829 6.75441 11.497C6.01004 10.0336 5.81252 9.10018 6.05038 8.16996C6.31189 7.14722 7.11837 6.30287 8.11302 6.01047C8.29366 5.95737 8.56168 5.93555 9.03339 5.93555C9.63987 5.93555 9.7101 5.94435 9.82504 6.03478C9.90482 6.09756 10.1612 6.55026 10.5228 7.26675L11.0945 8.39948L11.0929 8.7984C11.0914 9.15506 11.0738 9.23462 10.926 9.5494C10.8351 9.74304 10.621 10.0745 10.4503 10.286L10.14 10.6705L10.3601 11.1096C10.9326 12.2513 11.777 13.0855 12.9457 13.664L13.3413 13.8598L13.6102 13.617C14.1778 13.1047 14.7429 12.8584 15.2718 12.8929C15.5797 12.913 15.6704 12.9496 16.7263 13.4792C17.3457 13.7898 17.8947 14.0908 17.9463 14.148C18.0291 14.2399 18.0419 14.3306 18.0552 14.9213C18.0692 15.5424 18.0614 15.617 17.9462 15.9603C17.7839 16.4439 17.5471 16.8267 17.1948 17.1749Z" fill="white"/>
</g>
<defs>
<clipPath id="clip0_29_707">
<rect width="24" height="24" fill="white"/>
</clipPath>
</defs>
</svg>
