<svg width="28" height="28" viewBox="0 0 28 28" fill="none" xmlns="http://www.w3.org/2000/svg">
<g clip-path="url(#clip0_29_543)">
<path d="M19.04 0H8.96C4.01153 0 0 4.01153 0 8.96V19.04C0 23.9885 4.01153 28 8.96 28H19.04C23.9885 28 28 23.9885 28 19.04V8.96C28 4.01153 23.9885 0 19.04 0Z" fill="white"/>
<path d="M14.0004 3.35999C12.3166 3.35955 10.6705 3.85853 9.27025 4.79381C7.87005 5.72909 6.77871 7.05865 6.13427 8.61428C5.48984 10.1699 5.32127 11.8817 5.64989 13.5332C5.97851 15.1847 6.78955 16.7016 7.98042 17.892C9.52042 19.432 13.1492 21.6608 13.362 24.0016C13.3956 24.3544 13.6476 24.64 14.0004 24.64C14.3532 24.64 14.6052 24.3544 14.6388 24.0016C14.8516 21.6608 18.4804 19.432 20.0204 17.892C21.2113 16.7016 22.0223 15.1847 22.351 13.5332C22.6796 11.8817 22.511 10.1699 21.8666 8.61428C21.2221 7.05865 20.1308 5.72909 18.7306 4.79381C17.3304 3.85853 15.6843 3.35955 14.0004 3.35999Z" fill="#FF4433"/>
<path d="M13.9998 14.8517C14.79 14.8517 15.5477 14.5378 16.1064 13.9791C16.6652 13.4204 16.979 12.6626 16.979 11.8725C16.979 11.0824 16.6652 10.3246 16.1064 9.7659C15.5477 9.20719 14.79 8.89331 13.9998 8.89331C13.2097 8.89331 12.4519 9.20719 11.8932 9.7659C11.3345 10.3246 11.0206 11.0824 11.0206 11.8725C11.0206 12.6626 11.3345 13.4204 11.8932 13.9791C12.4519 14.5378 13.2097 14.8517 13.9998 14.8517Z" fill="white"/>
<path fill-rule="evenodd" clip-rule="evenodd" d="M19.04 0.56H8.96C6.73218 0.56 4.59561 1.445 3.0203 3.0203C1.445 4.59561 0.56 6.73218 0.56 8.96V19.04C0.56 21.2678 1.445 23.4044 3.0203 24.9797C4.59561 26.555 6.73218 27.44 8.96 27.44H19.04C21.2678 27.44 23.4044 26.555 24.9797 24.9797C26.555 23.4044 27.44 21.2678 27.44 19.04V8.96C27.44 6.73218 26.555 4.59561 24.9797 3.0203C23.4044 1.445 21.2678 0.56 19.04 0.56ZM8.96 0C6.58366 0 4.30465 0.943997 2.62432 2.62432C0.943997 4.30465 0 6.58366 0 8.96L0 19.04C0 21.4163 0.943997 23.6954 2.62432 25.3757C4.30465 27.056 6.58366 28 8.96 28H19.04C21.4163 28 23.6954 27.056 25.3757 25.3757C27.056 23.6954 28 21.4163 28 19.04V8.96C28 6.58366 27.056 4.30465 25.3757 2.62432C23.6954 0.943997 21.4163 0 19.04 0L8.96 0Z" fill="black" fill-opacity="0.12"/>
</g>
<defs>
<clipPath id="clip0_29_543">
<rect width="28" height="28" fill="white"/>
</clipPath>
</defs>
</svg>
